<svg width="72" height="83" viewBox="0 0 72 83" fill="none" xmlns="http://www.w3.org/2000/svg">
<path d="M6.28857 67.3043V69.9054C6.28857 71.338 7.43169 72.5 8.84294 72.5H37.2621M6.28857 67.3043L37.2621 67.3043M6.28857 67.3043L3.55597 67.3043C2.14473 67.3043 1 66.1423 1 64.7097V14.6853M52.5016 6.19575H55.2326C56.6438 6.19575 57.7885 7.35778 57.7885 8.79036V42.0499M52.5016 6.19575L52.5016 3.59463C52.5016 2.16206 51.3569 1.00003 49.9457 1.00003H20.1349M52.5016 6.19575L52.5016 47.7518M10.093 23.9108H43.4609M10.093 31.1589H43.4609M37.2298 38.4069H43.4609M10.093 38.4069H31.5776M10.093 45.6549H24.6429M10.093 52.9029H24.6429M64.3039 82H43.9579C40.2598 82 37.2616 78.9567 37.2616 75.2027V54.5492C37.2616 50.795 40.2598 47.7517 43.9579 47.7517H64.3039C68.002 47.7517 71 50.795 71 54.5492V75.2027C71 78.9567 68.002 82 64.3039 82ZM62.5629 62.3593L56.5207 54.7159C55.2941 53.1644 52.9677 53.1644 51.7411 54.7159L45.6989 62.3593C44.1998 64.1554 45.5875 67.1223 47.9172 67.0537H50.2606V74.6471C50.2606 75.5046 50.9452 76.1995 51.7897 76.1995H56.472C57.3165 76.1995 58.0011 75.5046 58.0011 74.6471V67.0537H60.3445C62.6738 67.1225 64.0622 64.1556 62.5629 62.3593ZM1.00025 14.6849L14.5039 1V12.0908C14.5039 13.5235 13.3596 14.6849 11.9484 14.6849H1.00025ZM34.3944 13.5609H23.0871C21.634 13.5609 20.456 12.3651 20.456 10.89V10.8844C20.456 9.40933 21.634 8.2134 23.0871 8.2134H34.3944C35.8476 8.2134 37.0255 9.40933 37.0255 10.8844V10.89C37.0255 12.3651 35.8476 13.5609 34.3944 13.5609Z" stroke="url(#paint0_linear_25_741)" stroke-width="2" stroke-miterlimit="10" stroke-linecap="round" stroke-linejoin="round"/>
<defs>
<linearGradient id="paint0_linear_25_741" x1="36" y1="1" x2="36" y2="82" gradientUnits="userSpaceOnUse">
<stop stop-color="#6E46E5"/>
<stop offset="1" stop-color="#1925E8"/>
</linearGradient>
</defs>
</svg>
