<svg width="97" height="25" viewBox="0 0 97 25" fill="none" xmlns="http://www.w3.org/2000/svg">
<path d="M2.98443 0.0124024L0 2.99174L22.0459 25L25.0303 22.0207L2.98443 0.0124024Z" fill="#1925E8"/>
<path d="M22.0459 0L0 22.0083L2.98443 24.9876L25.0303 2.97934L22.0459 0Z" fill="#1925E8"/>
<path d="M38.9693 0.010936L35.9848 2.99027L58.0307 24.9985L61.0152 22.0192L38.9693 0.010936Z" fill="#FF9C00"/>
<path d="M58.0185 0.0122899L35.9726 22.0205L38.9571 24.9999L61.003 2.99163L58.0185 0.0122899Z" fill="#FF9C00"/>
<path d="M74.9541 0.00948657L71.9697 2.98883L94.0156 24.9971L97 22.0177L74.9541 0.00948657Z" fill="#1925E8"/>
<path d="M94.0042 0.0116132L71.9583 22.0199L74.9427 24.9992L96.9886 2.99095L94.0042 0.0116132Z" fill="#1925E8"/>
</svg>
