<svg width="56" height="102" viewBox="0 0 56 102" fill="none" xmlns="http://www.w3.org/2000/svg">
<path d="M0.9 0L2.7 21.3C2.5 21.3 2.3 21.3 2.1 21.4L0 0.1C0.3 0.1 0.6 0 0.9 0ZM14.8 0.8C15.1 0.9 15.4 0.9 15.7 1L11.3 21.9C11.1 21.9 10.9 21.8 10.8 21.8L14.8 0.8ZM28.8 5.7C29.1 5.8 29.4 6 29.6 6.1L19.3 24.8C19.1 24.7 19 24.6 18.8 24.5L28.8 5.7ZM40.8 14.5C41 14.7 41.2 14.9 41.5 15.2L26.2 30C26.1 29.9 25.9 29.7 25.8 29.6L40.8 14.5ZM49.7 26.3C49.9 26.6 50 26.9 50.1 27.1L31.2 37C31.1 36.8 31 36.7 31 36.5L49.7 26.3ZM54.8 40.3C54.9 40.6 54.9 40.9 55 41.2L34 45.1C34 44.9 33.9 44.8 33.9 44.6L54.8 40.3ZM34.4 53.2L55.6 55.1C55.6 55.4 55.5 55.7 55.5 56L34.3 53.7C34.3 53.6 34.4 53.4 34.4 53.2ZM32.4 61.6L52.2 69.6C52.1 69.9 52 70.2 51.8 70.5L32.2 62C32.2 61.9 32.3 61.7 32.4 61.6ZM28 69L44.6 82.4C44.4 82.6 44.2 82.9 44 83.1L27.6 69.4C27.8 69.2 27.9 69.1 28 69ZM21.7 74.8L33.7 92.4C33.4 92.6 33.2 92.7 32.9 92.9L21.2 75.1C21.4 75 21.5 74.9 21.7 74.8ZM13.9 78.6L20.3 99C20 99.1 19.7 99.2 19.4 99.3L13.3 78.8C13.6 78.7 13.8 78.6 13.9 78.6ZM5.4 79.9L5.6 101.2H4.7L4.9 79.9H5.4Z" fill="url(#paint0_linear_1_478)"/>
<defs>
<linearGradient id="paint0_linear_1_478" x1="72.2321" y1="-23.6915" x2="-32.7626" y2="112.802" gradientUnits="userSpaceOnUse">
<stop stop-color="#420DBD"/>
<stop offset="0.1613" stop-color="#6E46E5"/>
<stop offset="0.5215" stop-color="#F88D2F"/>
<stop offset="1" stop-color="#F88D2F"/>
</linearGradient>
</defs>
</svg>
