<svg width="162" height="171" viewBox="0 0 162 171" fill="none" xmlns="http://www.w3.org/2000/svg">
<path d="M173.84 26.6547C130.628 -11.3148 64.6349 -7.06412 26.6782 36.1334C-11.2785 79.331 -7.00558 145.323 36.2065 183.292C79.4186 221.262 145.412 217.011 183.369 173.814C221.378 130.663 217.052 64.6241 173.84 26.6547ZM35.6929 183.877C-7.7849 145.674 -12.0901 79.1827 26.1467 35.6664C64.3835 -7.84994 130.829 -12.0796 174.307 26.1234C217.838 64.373 222.09 130.817 183.9 174.281C145.71 217.744 79.2239 222.126 35.6929 183.877Z" fill="url(#paint0_linear_17_4)"/>
<path d="M171.379 32.7782C132.207 -1.64179 72.3037 2.21658 37.8953 41.376C3.48688 80.5353 7.36541 140.437 46.538 174.857C85.7106 209.277 145.614 205.419 180.022 166.259C214.431 127.1 210.552 67.1983 171.379 32.7782ZM46.0711 175.389C6.57963 140.688 2.67523 80.3871 37.3638 40.9089C72.1055 1.47745 132.408 -2.40664 171.846 32.2469C211.338 66.9471 215.242 127.248 180.554 166.727C145.865 206.205 85.5626 210.089 46.0711 175.389Z" fill="url(#paint1_linear_17_4)"/>
<path d="M168.919 38.9018C133.786 8.03117 80.0725 11.4908 49.2122 46.6121C18.352 81.7333 21.8298 135.445 56.9629 166.316C92.096 197.187 145.809 193.727 176.669 158.606C207.53 123.484 204.052 69.7724 168.919 38.9018ZM56.4493 166.9C20.9973 135.75 17.4937 81.6382 48.634 46.1982C79.7744 10.7581 133.934 7.21962 169.386 38.3704C204.838 69.5213 208.341 123.633 177.201 159.073C146.06 194.513 91.9013 198.051 56.4493 166.9Z" fill="url(#paint2_linear_17_4)"/>
<path d="M166.411 45.0784C135.318 17.7573 87.7945 20.8182 60.4825 51.9013C33.1705 82.9844 36.2475 130.507 67.3411 157.828C98.4346 185.149 145.958 182.088 173.27 151.005C200.582 119.922 197.505 72.3996 166.411 45.0784ZM66.8742 158.359C35.4617 130.758 32.4056 82.7831 59.951 51.4343C87.5431 20.0324 135.519 16.9924 166.878 44.5471C198.291 72.1485 201.347 120.123 173.801 151.472C146.209 182.874 98.2867 185.96 66.8742 158.359Z" fill="url(#paint3_linear_17_4)"/>
<path d="M163.95 51.202C136.896 27.4302 95.5101 30.0458 71.6996 57.1439C47.9359 84.1888 50.5654 125.574 77.6726 149.393C104.727 173.164 146.113 170.549 169.923 143.451C193.734 116.353 191.005 74.9738 163.95 51.202ZM77.2524 149.871C49.8794 125.819 47.1709 83.9875 71.2148 56.6237C95.2587 29.26 137.091 26.5655 164.464 50.6175C191.837 74.6695 194.545 116.501 170.502 143.865C146.458 171.228 104.625 173.923 77.2524 149.871Z" fill="url(#paint4_linear_17_4)"/>
<path d="M161.49 57.3255C138.475 37.1032 103.232 39.3732 83.0166 62.38C62.801 85.3868 65.0829 120.629 88.0974 140.851C111.112 161.074 146.355 158.804 166.571 135.797C186.786 112.79 184.504 77.5479 161.49 57.3255ZM87.6306 141.383C64.2971 120.88 61.9894 85.2386 82.485 61.9129C102.981 38.5873 138.623 36.2916 161.957 56.7942C185.29 77.2967 187.598 112.938 167.102 136.264C146.606 159.59 110.964 161.885 87.6306 141.383Z" fill="url(#paint5_linear_17_4)"/>
<path d="M159.029 63.4491C140.054 46.7761 111.001 48.6474 94.3335 67.6161C77.6662 86.5847 79.5473 115.637 98.5223 132.31C117.497 148.983 146.55 147.112 163.218 128.143C179.885 109.174 178.004 80.122 159.029 63.4491ZM98.0088 132.895C78.7148 115.941 76.8079 86.4897 93.7553 67.2022C110.703 47.9147 140.155 46.0177 159.449 62.9708C178.743 79.924 180.65 109.376 163.703 128.663C146.755 147.951 117.303 149.848 98.0088 132.895Z" fill="url(#paint6_linear_17_4)"/>
<path d="M156.468 69.579C141.48 56.4088 118.617 57.8814 105.451 72.8651C92.285 87.8487 93.7653 110.711 108.754 123.881C123.743 137.052 146.606 135.579 159.771 120.595C172.937 105.612 171.457 82.7492 156.468 69.579ZM108.334 124.36C93.0794 110.956 91.5667 87.5942 104.966 72.3449C118.365 57.0956 141.727 55.5908 156.982 68.9946C172.236 82.3983 173.749 105.76 160.35 121.009C146.95 136.259 123.588 137.763 108.334 124.36Z" fill="url(#paint7_linear_17_4)"/>
<defs>
<linearGradient id="paint0_linear_17_4" x1="83.886" y1="207.857" x2="126.226" y2="2.19609" gradientUnits="userSpaceOnUse">
<stop stop-color="#F65B00"/>
<stop offset="0.6344" stop-color="#420DBD"/>
<stop offset="1" stop-color="#6E46E5"/>
</linearGradient>
<linearGradient id="paint1_linear_17_4" x1="83.8686" y1="207.825" x2="126.169" y2="2.20683" gradientUnits="userSpaceOnUse">
<stop stop-color="#F65B00"/>
<stop offset="0.6344" stop-color="#420DBD"/>
<stop offset="1" stop-color="#6E46E5"/>
</linearGradient>
<linearGradient id="paint2_linear_17_4" x1="83.8795" y1="207.815" x2="126.213" y2="2.2217" gradientUnits="userSpaceOnUse">
<stop stop-color="#F65B00"/>
<stop offset="0.6344" stop-color="#420DBD"/>
<stop offset="1" stop-color="#6E46E5"/>
</linearGradient>
<linearGradient id="paint3_linear_17_4" x1="83.8371" y1="207.866" x2="126.159" y2="2.14254" gradientUnits="userSpaceOnUse">
<stop stop-color="#F65B00"/>
<stop offset="0.6344" stop-color="#420DBD"/>
<stop offset="1" stop-color="#6E46E5"/>
</linearGradient>
<linearGradient id="paint4_linear_17_4" x1="83.8" y1="207.827" x2="126.092" y2="2.24848" gradientUnits="userSpaceOnUse">
<stop stop-color="#F65B00"/>
<stop offset="0.6344" stop-color="#420DBD"/>
<stop offset="1" stop-color="#6E46E5"/>
</linearGradient>
<linearGradient id="paint5_linear_17_4" x1="83.8105" y1="207.805" x2="126.116" y2="2.16284" gradientUnits="userSpaceOnUse">
<stop stop-color="#F65B00"/>
<stop offset="0.6344" stop-color="#420DBD"/>
<stop offset="1" stop-color="#6E46E5"/>
</linearGradient>
<linearGradient id="paint6_linear_17_4" x1="83.8256" y1="207.773" x2="126.149" y2="2.04142" gradientUnits="userSpaceOnUse">
<stop stop-color="#F65B00"/>
<stop offset="0.6344" stop-color="#420DBD"/>
<stop offset="1" stop-color="#6E46E5"/>
</linearGradient>
<linearGradient id="paint7_linear_17_4" x1="125.26" y1="132.764" x2="140.107" y2="60.647" gradientUnits="userSpaceOnUse">
<stop stop-color="#F65B00"/>
<stop offset="0.6344" stop-color="#420DBD"/>
<stop offset="1" stop-color="#6E46E5"/>
</linearGradient>
</defs>
</svg>
