<svg width="128" height="84" viewBox="0 0 128 84" fill="none" xmlns="http://www.w3.org/2000/svg">
<path d="M-11.5542 157.192L-5.06641 0L127.825 84.2209L-11.5542 157.192ZM-3.84666 2.33632L-10.1497 154.976L125.192 84.1152L-3.84666 2.33632Z" fill="#FF9C00"/>
<path d="M-5.33947 147.386L0.324724 10.2992L116.21 83.7423L-5.33947 147.386ZM1.55365 12.621L-3.92579 145.155L113.586 83.6221L1.55365 12.621Z" fill="#FF9C00"/>
<path d="M0.88443 137.565L5.71585 20.5984L104.595 83.2637L0.88443 137.565ZM6.9303 22.9111L2.29812 135.334L101.971 83.1436L6.9303 22.9111Z" fill="#FF9C00"/>
<path d="M7.10833 127.744L11.1017 30.874L92.9891 82.7707L7.10833 127.744ZM12.3214 33.2103L8.51284 125.528L90.3702 82.6742L12.3214 33.2103Z" fill="#FF9C00"/>
<path d="M13.3231 117.938L16.4928 41.1732L81.3886 82.3013L13.3231 117.938ZM17.7126 43.5095L14.7276 115.722L78.7551 82.1956L17.7126 43.5095Z" fill="#FF9C00"/>
<path d="M19.547 108.117L21.8839 51.4724L69.7735 81.8228L19.547 108.117ZM23.1037 53.8087L20.9515 105.901L67.1401 81.7171L23.1037 53.8087Z" fill="#FF9C00"/>
<path d="M25.7617 98.3112L27.2751 61.7716L58.1585 81.3442L25.7617 98.3112ZM28.504 64.0934L27.1754 96.0806L55.5342 81.224L28.504 64.0934Z" fill="#FF9C00"/>
</svg>
