<svg  viewBox="0 0 375 215" fill="none" xmlns="http://www.w3.org/2000/svg">
<path d="M386.84 70.6547C343.628 32.6852 277.635 36.9359 239.678 80.1334C201.722 123.331 205.994 189.323 249.207 227.292C292.419 265.262 358.412 261.011 396.369 217.814C434.378 174.663 430.052 108.624 386.84 70.6547ZM248.693 227.877C205.215 189.674 200.91 123.183 239.147 79.6664C277.383 36.1501 343.829 31.9204 387.307 70.1234C430.838 108.373 435.09 174.817 396.9 218.281C358.71 261.744 292.224 266.126 248.693 227.877Z" fill="url(#paint0_linear_254_4)"/>
<path d="M384.379 76.7782C345.207 42.3582 285.304 46.2166 250.895 85.376C216.487 124.535 220.365 184.437 259.538 218.857C298.711 253.277 358.614 249.419 393.022 210.259C427.431 171.1 423.552 111.198 384.379 76.7782ZM259.071 219.389C219.58 184.688 215.675 124.387 250.364 84.9089C285.105 45.4774 345.408 41.5934 384.846 76.2469C424.338 110.947 428.242 171.248 393.554 210.727C358.865 250.205 298.563 254.089 259.071 219.389Z" fill="url(#paint1_linear_254_4)"/>
<path d="M381.919 82.9018C346.786 52.0312 293.072 55.4908 262.212 90.6121C231.352 125.733 234.83 179.445 269.963 210.316C305.096 241.187 358.809 237.727 389.669 202.606C420.53 167.484 417.052 113.772 381.919 82.9018ZM269.449 210.9C233.997 179.75 230.494 125.638 261.634 90.1982C292.774 54.7581 346.934 51.2196 382.386 82.3704C417.838 113.521 421.341 167.633 390.201 203.073C359.06 238.513 304.901 242.051 269.449 210.9Z" fill="url(#paint2_linear_254_4)"/>
<path d="M379.411 89.0784C348.318 61.7573 300.794 64.8182 273.482 95.9013C246.171 126.984 249.248 174.507 280.341 201.828C311.435 229.149 358.958 226.088 386.27 195.005C413.582 163.922 410.505 116.4 379.411 89.0784ZM279.874 202.359C248.462 174.758 245.406 126.783 272.951 95.4343C300.543 64.0324 348.519 60.9924 379.878 88.5471C411.291 116.149 414.347 164.123 386.801 195.472C359.209 226.874 311.287 229.96 279.874 202.359Z" fill="url(#paint3_linear_254_4)"/>
<path d="M376.95 95.202C349.896 71.4302 308.51 74.0458 284.7 101.144C260.936 128.189 263.565 169.574 290.673 193.393C317.727 217.164 359.113 214.549 382.923 187.451C406.734 160.353 404.005 118.974 376.95 95.202ZM290.252 193.871C262.879 169.819 260.171 127.987 284.215 100.624C308.259 73.26 350.091 70.5655 377.464 94.6175C404.837 118.669 407.545 160.501 383.502 187.865C359.458 215.228 317.625 217.923 290.252 193.871Z" fill="url(#paint4_linear_254_4)"/>
<path d="M374.49 101.326C351.475 81.1032 316.232 83.3732 296.017 106.38C275.801 129.387 278.083 164.629 301.097 184.851C324.112 205.074 359.355 202.804 379.571 179.797C399.786 156.79 397.504 121.548 374.49 101.326ZM300.631 185.383C277.297 164.88 274.989 129.239 295.485 105.913C315.981 82.5873 351.623 80.2916 374.957 100.794C398.29 121.297 400.598 156.938 380.102 180.264C359.606 203.59 323.964 205.885 300.631 185.383Z" fill="url(#paint5_linear_254_4)"/>
<path d="M372.029 107.449C353.054 90.7761 324.001 92.6474 307.333 111.616C290.666 130.585 292.547 159.637 311.522 176.31C330.497 192.983 359.55 191.112 376.218 172.143C392.885 153.174 391.004 124.122 372.029 107.449ZM311.009 176.895C291.715 159.941 289.808 130.49 306.755 111.202C323.703 91.9147 353.155 90.0177 372.449 106.971C391.743 123.924 393.65 153.376 376.703 172.663C359.755 191.951 330.303 193.848 311.009 176.895Z" fill="url(#paint6_linear_254_4)"/>
<path d="M369.468 113.579C354.48 100.409 331.617 101.881 318.451 116.865C305.285 131.849 306.765 154.711 321.754 167.881C336.743 181.052 359.606 179.579 372.771 164.595C385.937 149.612 384.457 126.749 369.468 113.579ZM321.334 168.36C306.079 154.956 304.567 131.594 317.966 116.345C331.365 101.096 354.727 99.5908 369.982 112.995C385.236 126.398 386.749 149.76 373.35 165.009C359.95 180.259 336.588 181.763 321.334 168.36Z" fill="url(#paint7_linear_254_4)"/>
<path d="M-11.5542 288.192L-5.06641 131L127.825 215.221L-11.5542 288.192ZM-3.84666 133.336L-10.1497 285.976L125.192 215.115L-3.84666 133.336Z" fill="#FF9C00"/>
<path d="M-5.33947 278.386L0.324724 141.299L116.21 214.742L-5.33947 278.386ZM1.55365 143.621L-3.92579 276.155L113.586 214.622L1.55365 143.621Z" fill="#FF9C00"/>
<path d="M0.88443 268.565L5.71585 151.598L104.595 214.264L0.88443 268.565ZM6.9303 153.911L2.29812 266.334L101.971 214.144L6.9303 153.911Z" fill="#FF9C00"/>
<path d="M7.10833 258.744L11.1017 161.874L92.9891 213.771L7.10833 258.744ZM12.3214 164.21L8.51284 256.528L90.3702 213.674L12.3214 164.21Z" fill="#FF9C00"/>
<path d="M13.3231 248.938L16.4928 172.173L81.3886 213.301L13.3231 248.938ZM17.7126 174.51L14.7276 246.722L78.7551 213.196L17.7126 174.51Z" fill="#FF9C00"/>
<path d="M19.547 239.117L21.8839 182.472L69.7735 212.823L19.547 239.117ZM23.1037 184.809L20.9515 236.901L67.1401 212.717L23.1037 184.809Z" fill="#FF9C00"/>
<path d="M25.7617 229.311L27.2751 192.772L58.1585 212.344L25.7617 229.311ZM28.504 195.093L27.1754 227.081L55.5342 212.224L28.504 195.093Z" fill="#FF9C00"/>
<defs>
<linearGradient id="paint0_linear_254_4" x1="296.886" y1="251.857" x2="339.226" y2="46.1961" gradientUnits="userSpaceOnUse">
<stop stop-color="#F65B00"/>
<stop offset="0.6344" stop-color="#420DBD"/>
<stop offset="1" stop-color="#6E46E5"/>
</linearGradient>
<linearGradient id="paint1_linear_254_4" x1="296.869" y1="251.825" x2="339.169" y2="46.2068" gradientUnits="userSpaceOnUse">
<stop stop-color="#F65B00"/>
<stop offset="0.6344" stop-color="#420DBD"/>
<stop offset="1" stop-color="#6E46E5"/>
</linearGradient>
<linearGradient id="paint2_linear_254_4" x1="296.88" y1="251.815" x2="339.213" y2="46.2217" gradientUnits="userSpaceOnUse">
<stop stop-color="#F65B00"/>
<stop offset="0.6344" stop-color="#420DBD"/>
<stop offset="1" stop-color="#6E46E5"/>
</linearGradient>
<linearGradient id="paint3_linear_254_4" x1="296.837" y1="251.866" x2="339.159" y2="46.1425" gradientUnits="userSpaceOnUse">
<stop stop-color="#F65B00"/>
<stop offset="0.6344" stop-color="#420DBD"/>
<stop offset="1" stop-color="#6E46E5"/>
</linearGradient>
<linearGradient id="paint4_linear_254_4" x1="296.8" y1="251.827" x2="339.092" y2="46.2485" gradientUnits="userSpaceOnUse">
<stop stop-color="#F65B00"/>
<stop offset="0.6344" stop-color="#420DBD"/>
<stop offset="1" stop-color="#6E46E5"/>
</linearGradient>
<linearGradient id="paint5_linear_254_4" x1="296.811" y1="251.805" x2="339.116" y2="46.1628" gradientUnits="userSpaceOnUse">
<stop stop-color="#F65B00"/>
<stop offset="0.6344" stop-color="#420DBD"/>
<stop offset="1" stop-color="#6E46E5"/>
</linearGradient>
<linearGradient id="paint6_linear_254_4" x1="296.826" y1="251.773" x2="339.149" y2="46.0414" gradientUnits="userSpaceOnUse">
<stop stop-color="#F65B00"/>
<stop offset="0.6344" stop-color="#420DBD"/>
<stop offset="1" stop-color="#6E46E5"/>
</linearGradient>
<linearGradient id="paint7_linear_254_4" x1="338.26" y1="176.764" x2="353.107" y2="104.647" gradientUnits="userSpaceOnUse">
<stop stop-color="#F65B00"/>
<stop offset="0.6344" stop-color="#420DBD"/>
<stop offset="1" stop-color="#6E46E5"/>
</linearGradient>
</defs>
</svg>
