<svg width="1883" height="1162" viewBox="0 0 1883 1162" fill="none" xmlns="http://www.w3.org/2000/svg">
<path d="M1897.21 925.449C1896.17 925.189 1895.14 924.67 1894.1 924.411C1867.65 931.935 1840.68 932.973 1814.24 920C1813.2 920.259 1812.42 920.519 1811.38 920.778C1812.16 921.038 1812.68 921.557 1813.46 921.816C1841.2 935.567 1869.72 933.751 1897.21 925.449Z" fill="url(#paint0_linear_25_66)"/>
<path d="M1913.29 931.935C1912.51 931.675 1911.73 931.157 1910.95 930.897C1874.65 948.281 1836.54 958.399 1801.01 938.94C1795.57 936.086 1790.9 932.454 1786.75 928.562C1785.97 928.821 1785.46 929.081 1784.68 929.34C1789.35 933.751 1794.27 937.383 1800.24 940.756C1837.05 960.734 1875.95 949.837 1913.29 931.935Z" fill="url(#paint1_linear_25_66)"/>
<path d="M1785.2 959.437C1798.42 967.48 1812.42 971.113 1826.68 971.113C1858.32 971.113 1891.76 954.508 1922.36 936.605C1921.58 936.346 1921.06 935.827 1920.29 935.567C1876.73 960.994 1827.2 983.307 1786.23 957.88C1777.94 952.691 1771.71 946.205 1766.27 938.681C1765.75 938.94 1765.23 939.2 1764.45 939.719C1770.16 947.243 1776.64 953.989 1785.2 959.437Z" fill="url(#paint2_linear_25_66)"/>
<path d="M1782.34 984.604C1830.57 1003.28 1882.43 971.372 1929.1 940.756C1928.58 940.497 1927.81 939.978 1927.29 939.719C1881.39 969.815 1830.05 1000.95 1783.12 982.788C1766.27 976.302 1756.93 963.848 1750.71 949.318C1750.19 949.837 1749.67 950.097 1749.16 950.616C1755.38 965.145 1764.97 977.858 1782.34 984.604Z" fill="url(#paint3_linear_25_66)"/>
<path d="M1768.08 1003.54C1818.64 1025.34 1877.24 984.604 1928.84 948.54C1930.92 946.983 1932.99 945.686 1935.07 944.389C1934.55 943.87 1934.03 943.61 1933.25 943.091C1931.44 944.389 1929.62 945.686 1927.81 946.983C1876.47 982.529 1818.39 1023 1768.86 1001.73C1749.93 993.685 1742.15 977.858 1738.01 960.216C1737.49 960.734 1736.97 961.253 1736.45 961.772C1740.6 979.415 1748.64 995.242 1768.08 1003.54Z" fill="url(#paint4_linear_25_66)"/>
<path d="M1757.19 1021.71C1807.75 1045.06 1868.95 1000.95 1922.88 962.032C1929.1 957.621 1935.33 952.951 1941.29 948.799C1940.77 948.281 1940.25 948.021 1939.73 947.502C1933.77 951.654 1927.81 956.064 1921.84 960.475C1868.17 999.134 1807.5 1042.72 1757.97 1019.89C1736.45 1010.03 1731.01 990.312 1729.19 968.778C1728.67 969.556 1727.89 970.075 1727.37 970.853C1729.45 992.128 1735.41 1011.85 1757.19 1021.71Z" fill="url(#paint5_linear_25_66)"/>
<path d="M1765.49 1079.31C1767.82 1080.86 1770.42 1082.16 1773.01 1083.46C1773.01 1083.46 1773.01 1083.46 1773.27 1083.46C1776.38 1085.01 1779.49 1086.57 1782.6 1087.87C1796.09 1094.35 1810.09 1099.28 1824.09 1101.62C1871.02 1109.66 1908.62 1095.39 1948.29 1080.34C1963.33 1074.64 1978.89 1068.67 1995.22 1064C1997.55 1063.22 2000.15 1062.7 2002.48 1061.92C2002.48 1061.14 2002.48 1060.62 2002.22 1059.85C1999.63 1060.37 1997.04 1061.14 1994.44 1061.92C1978.11 1066.59 1962.29 1072.56 1947.25 1078.53C1907.84 1093.58 1870.5 1107.85 1824.09 1099.8C1823.57 1099.8 1823.05 1099.54 1822.28 1099.54C1865.58 1104.73 1901.36 1088.39 1939.21 1071C1955.29 1063.74 1971.63 1056.21 1988.74 1050.51C1992.63 1049.21 1996.52 1047.91 2000.41 1046.61C2000.41 1046.1 2000.15 1045.32 2000.15 1044.8C1996.26 1046.09 1992.11 1047.39 1988.22 1048.69C1971.11 1054.4 1954.51 1062.18 1938.44 1069.45C1897.73 1088.13 1859.35 1105.51 1811.38 1095.91C1811.13 1095.91 1810.87 1095.65 1810.61 1095.65C1855.2 1101.62 1896.95 1080.08 1937.66 1058.81C1950.36 1052.32 1962.03 1046.1 1974.22 1040.65C1981.48 1037.27 1989.26 1034.16 1997.04 1031.31C1996.78 1030.79 1996.78 1030.01 1996.52 1029.49C1988.74 1032.34 1980.96 1035.72 1973.44 1039.09C1961.25 1044.54 1948.81 1051.02 1936.88 1057.25C1894.36 1079.31 1850.28 1102.14 1803.09 1092.28C1806.98 1092.8 1810.61 1093.06 1814.5 1093.06C1854.43 1093.06 1894.36 1069.71 1930.66 1048.69C1943.88 1040.91 1956.33 1033.64 1968.26 1027.93C1976.29 1024.04 1984.33 1020.15 1992.37 1017.04C1992.11 1016.52 1991.85 1015.74 1991.59 1015.22C1983.29 1018.59 1975.26 1022.23 1967.22 1026.38C1955.29 1032.34 1942.84 1039.61 1929.62 1047.13C1883.73 1073.6 1832.13 1103.69 1782.34 1085.27C1831.35 1097.99 1882.43 1065.04 1927.81 1035.98C1948.29 1022.74 1967.74 1010.29 1985.89 1002.51C1985.63 1001.99 1985.37 1001.47 1985.11 1000.69C1966.7 1008.47 1947.25 1020.93 1926.77 1034.16C1879.84 1064.52 1826.42 1098.76 1776.12 1081.38C1774.57 1080.86 1773.27 1080.34 1771.97 1079.82C1769.64 1078.53 1767.56 1077.23 1765.49 1075.67C1765.75 1075.67 1765.75 1075.93 1766.01 1075.93C1816.83 1096.17 1873.87 1057.25 1924.44 1022.74C1943.62 1009.77 1962.03 997.318 1978.37 989.015C1978.11 988.496 1977.59 987.977 1977.33 987.458C1960.74 995.501 1942.59 1007.96 1923.4 1021.19C1873.1 1055.44 1816.31 1094.09 1766.53 1074.12C1758.75 1071 1752.79 1066.59 1747.6 1061.14C1746.82 1060.11 1746.04 1059.33 1745.27 1058.29C1748.9 1061.4 1753.04 1064.26 1757.97 1066.33C1808.27 1088.65 1868.43 1045.84 1921.58 1008.21C1938.44 996.28 1954.77 984.604 1969.29 976.561C1968.77 976.042 1968.51 975.523 1968 975.004C1953.48 983.307 1937.4 994.723 1920.55 1006.66C1868.17 1044.28 1808.27 1086.57 1759.01 1064.78C1745.53 1058.81 1738.01 1048.69 1733.34 1037.01C1737.75 1044.28 1743.97 1050.25 1753.04 1054.66C1762.38 1059.07 1772.49 1061.14 1782.6 1061.14C1827.2 1061.14 1878.02 1024.3 1920.29 993.426C1934.29 983.307 1947.51 973.707 1959.96 965.924C1959.44 965.405 1959.18 964.886 1958.66 964.367C1946.47 972.15 1932.99 981.75 1919.25 991.869C1867.65 1029.23 1803.35 1075.93 1753.82 1052.84C1735.15 1044.02 1728.93 1028.19 1726.86 1009.51C1730.23 1021.97 1737.23 1032.6 1751.49 1039.35C1761.08 1044.02 1771.19 1045.84 1781.57 1045.84C1826.42 1045.84 1877.5 1008.47 1920.03 977.34C1930.4 969.815 1940.25 962.551 1949.85 956.064C1949.33 955.545 1948.81 955.286 1948.29 954.767C1938.96 961.253 1929.1 968.518 1918.99 975.783C1866.87 1013.92 1802.31 1061.4 1752.53 1037.53C1726.6 1025.34 1725.3 999.134 1725.56 972.929C1725.3 973.188 1725.3 973.188 1725.04 973.448C1724.52 974.226 1723.74 975.004 1723.23 975.783C1723.23 978.377 1723.49 981.231 1723.49 983.826C1723.49 984.345 1723.49 984.604 1723.49 985.123C1722.97 982.529 1722.71 979.675 1722.19 977.08C1721.67 977.858 1721.15 978.377 1720.63 979.156C1721.67 985.123 1722.45 991.35 1723.23 997.577C1723.74 1001.47 1724.26 1005.1 1724.78 1008.99C1724.78 1008.99 1724.78 1008.99 1724.78 1008.73C1722.45 1000.43 1720.37 991.869 1717.26 983.826C1716.74 984.345 1716.23 985.123 1715.97 985.642C1718.56 993.166 1720.63 1001.21 1722.97 1009.25C1724.52 1015.22 1726.08 1021.19 1727.89 1026.9C1726.6 1024.3 1725.56 1021.45 1724.26 1018.85C1720.37 1010.03 1716.23 1000.95 1711.56 992.647C1711.3 993.166 1710.78 993.945 1710.52 994.464C1714.93 1002.25 1718.56 1010.81 1722.45 1019.37C1726.34 1028.19 1730.49 1037.27 1735.15 1045.84C1730.49 1039.61 1726.08 1033.12 1721.93 1026.64C1716.74 1018.59 1711.3 1010.81 1705.59 1003.28C1705.34 1003.8 1704.82 1004.58 1704.56 1005.1C1710 1012.11 1714.93 1019.89 1720.11 1027.67C1726.08 1036.5 1732.04 1045.32 1738.52 1053.62C1732.56 1047.65 1726.6 1041.17 1720.89 1034.94C1714.41 1027.67 1707.67 1020.67 1700.67 1013.66C1700.41 1014.44 1700.15 1014.96 1699.89 1015.74C1706.63 1022.23 1713.11 1029.23 1719.34 1036.24C1725.04 1042.46 1731.01 1048.69 1736.97 1054.92C1732.04 1051.02 1727.37 1047.13 1722.45 1043.24C1714.15 1036.5 1705.59 1029.49 1697.04 1023C1696.78 1023.52 1696.52 1024.3 1696.26 1024.82C1704.82 1031.05 1712.85 1037.79 1721.15 1044.54C1731.26 1052.84 1741.38 1061.14 1752.01 1068.67C1752.27 1068.67 1752.27 1068.93 1752.53 1068.93C1742.93 1063.22 1733.6 1057.25 1724.52 1051.02C1714.67 1044.54 1704.56 1038.05 1694.45 1032.08C1694.19 1033.38 1694.19 1033.9 1693.93 1034.68C1703.78 1040.65 1713.63 1047.13 1723.49 1053.36C1737.23 1062.18 1751.23 1071.26 1765.49 1079.31Z" fill="url(#paint6_linear_25_66)"/>
<path d="M1957.11 1087.35C1912.77 1100.32 1870.76 1112.77 1818.64 1100.84C1790.12 1094.35 1759.53 1078.01 1727.12 1060.62C1715.45 1054.4 1703.78 1048.17 1692.11 1042.2C1691.85 1042.98 1691.85 1043.5 1691.85 1044.28C1703.52 1049.99 1714.93 1056.21 1726.34 1062.44C1758.75 1079.82 1789.35 1096.43 1818.39 1102.92C1870.76 1114.85 1913.03 1102.66 1957.62 1089.42C1972.14 1085.01 1987.18 1080.86 2003 1076.97C2003 1076.19 2003 1075.67 2003 1074.89C1987.18 1078.79 1971.89 1083.2 1957.11 1087.35Z" fill="url(#paint7_linear_25_66)"/>
<path d="M1828.76 1106.81C1799.2 1101.1 1765.75 1085.79 1730.23 1069.71C1717 1063.48 1703.78 1057.51 1690.56 1051.8C1690.56 1052.58 1690.3 1053.1 1690.3 1053.88C1703.52 1059.59 1716.48 1065.55 1729.45 1071.52C1764.97 1087.87 1798.42 1103.18 1828.24 1108.88C1879.32 1118.74 1921.84 1109.4 1967.22 1099.54C1978.63 1097.21 1990.04 1094.61 2001.96 1092.28C2001.96 1091.5 2002.22 1090.98 2002.22 1090.2C1990.04 1092.54 1978.11 1095.13 1966.7 1097.47C1921.84 1107.33 1879.32 1116.67 1828.76 1106.81Z" fill="url(#paint8_linear_25_66)"/>
<path d="M1837.57 1114.07C1798.16 1107.59 1759.53 1094.09 1722.19 1080.86C1711.3 1076.97 1700.15 1073.08 1689 1069.19C1689 1069.96 1689 1070.48 1689 1071.26C1699.89 1074.89 1710.78 1078.79 1721.67 1082.68C1759.01 1095.91 1797.64 1109.4 1837.31 1116.15C1886.58 1124.45 1930.14 1117.7 1976.29 1110.96C1983.81 1109.92 1991.85 1108.62 1999.63 1107.59C1999.89 1106.81 1999.89 1106.29 2000.15 1105.51C1992.11 1106.55 1983.81 1107.85 1976.03 1109.14C1930.14 1115.89 1886.58 1122.37 1837.57 1114.07Z" fill="url(#paint9_linear_25_66)"/>
<path d="M1865.32 1126.27C1817.61 1121.6 1770.42 1106.29 1724.78 1091.24C1712.85 1087.35 1700.93 1083.46 1689 1079.82C1689 1080.6 1689 1081.12 1689 1081.9C1700.67 1085.53 1712.34 1089.42 1724 1093.06C1769.9 1108.1 1817.09 1123.67 1865.32 1128.08C1904.47 1131.72 1940.77 1128.08 1979.4 1124.19C1984.85 1123.67 1990.04 1123.15 1995.48 1122.63C1995.74 1121.86 1996 1121.34 1996.26 1120.56C1990.55 1121.08 1984.85 1121.6 1979.15 1122.12C1940.77 1126.27 1904.21 1129.9 1865.32 1126.27Z" fill="url(#paint10_linear_25_66)"/>
<path d="M1870.76 1137.94C1821.5 1133.53 1772.75 1118.74 1725.56 1104.73C1713.89 1101.36 1702.22 1097.73 1690.3 1094.35C1690.3 1095.13 1690.56 1095.65 1690.56 1096.43C1702.22 1099.8 1713.63 1103.18 1725.04 1106.55C1772.23 1120.82 1821.24 1135.35 1870.76 1139.76C1908.36 1143.13 1946.22 1140.8 1982.78 1138.72C1985.11 1138.46 1987.18 1138.46 1989.52 1138.2C1989.78 1137.42 1990.04 1136.9 1990.29 1136.13C1987.7 1136.39 1985.11 1136.39 1982.52 1136.64C1945.96 1138.98 1908.36 1141.31 1870.76 1137.94Z" fill="url(#paint11_linear_25_66)"/>
<path d="M1873.1 1152.73C1823.31 1148.06 1774.05 1134.05 1726.08 1120.3C1715.19 1117.19 1704.3 1114.07 1693.41 1111.22C1693.67 1112 1693.67 1112.77 1693.93 1113.29C1704.56 1116.15 1714.93 1119.26 1725.56 1122.12C1773.53 1135.87 1823.05 1149.88 1872.84 1154.55C1908.62 1157.92 1945.18 1156.36 1980.7 1154.81C1981.22 1154.03 1981.48 1153.51 1981.74 1152.73C1946.22 1154.55 1909.14 1156.1 1873.1 1152.73Z" fill="url(#paint12_linear_25_66)"/>
<path d="M1869.72 1169.85C1820.72 1165.18 1772.23 1150.66 1725.3 1136.39C1716.48 1133.79 1707.41 1130.94 1698.59 1128.34C1698.85 1129.38 1699.37 1130.16 1699.63 1130.68C1708.19 1133.27 1716.48 1135.61 1725.04 1138.2C1771.97 1152.47 1820.46 1167 1869.47 1171.67C1903.95 1175.04 1937.66 1172.71 1970.59 1169.6C1971.11 1168.82 1971.63 1168.3 1972.14 1167.52C1937.66 1170.63 1904.73 1173.23 1869.72 1169.85Z" fill="url(#paint13_linear_25_66)"/>
<path d="M1843.28 1184.38C1802.05 1177.9 1761.08 1165.18 1721.67 1152.99C1717 1151.69 1712.34 1150.14 1707.93 1148.84C1708.45 1149.62 1708.97 1150.4 1709.22 1151.43C1713.11 1152.73 1717.26 1153.77 1721.15 1155.07C1760.56 1167.26 1801.53 1179.97 1843.02 1186.46C1885.02 1192.95 1921.84 1189.05 1959.18 1183.35C1959.96 1182.57 1960.74 1181.79 1961.51 1181.01C1923.14 1186.98 1885.8 1191.13 1843.28 1184.38Z" fill="url(#paint14_linear_25_66)"/>
<path d="M1835.76 1201.77C1796.86 1194.76 1758.75 1181.53 1721.93 1168.56C1721.41 1168.3 1720.63 1168.04 1720.11 1167.78C1720.89 1168.82 1721.67 1169.6 1722.19 1170.63C1758.75 1183.61 1796.61 1196.84 1835.5 1203.58C1877.24 1211.11 1909.91 1205.92 1943.62 1197.36C1944.92 1196.32 1945.96 1195.54 1947.25 1194.5C1911.99 1203.58 1878.8 1209.29 1835.76 1201.77Z" fill="url(#paint15_linear_25_66)"/>
<path d="M1827.2 1219.15C1799.2 1213.44 1767.31 1198.91 1733.34 1183.61C1734.64 1184.9 1735.93 1186.2 1737.23 1187.5C1769.38 1202.03 1799.98 1215.52 1826.68 1220.97C1857.02 1227.19 1881.39 1225.64 1903.95 1220.19C1908.1 1218.63 1911.99 1216.82 1915.88 1215C1889.95 1222.78 1862.72 1226.42 1827.2 1219.15Z" fill="url(#paint16_linear_25_66)"/>
<path d="M614.56 668.867C615.663 667.015 616.766 665.331 617.7 663.984C626.525 651.525 640.867 636.456 659.537 635.698C673.878 635.109 682.704 644.706 692.039 654.808C699.337 662.722 706.975 670.972 717.413 673.918C728.275 677.033 738.968 675.434 749.321 673.077C749.321 672.824 749.236 672.656 749.236 672.403C738.883 674.76 728.275 676.36 717.583 673.329C707.314 670.383 699.761 662.217 692.463 654.387C683.553 644.622 674.218 634.435 659.537 635.024C640.612 635.866 626.016 651.02 617.106 663.648C616.172 664.995 615.069 666.763 613.881 668.531C610.741 673.582 606.583 680.232 602 683.768C602 684.021 602 684.358 602 684.61C606.837 681.158 610.995 674.424 614.56 668.867Z" fill="url(#paint17_linear_25_66)"/>
<path d="M615.833 674.171C616.766 672.571 617.615 671.056 618.463 669.878C630.429 651.188 644.261 641.591 659.452 641.17C674.133 640.749 683.044 650.094 692.378 659.944C699.507 667.436 706.805 675.097 716.904 678.296C728.106 681.832 739.138 679.896 749.83 677.286C749.83 677.033 749.83 676.865 749.745 676.612C739.053 679.222 728.106 681.159 717.073 677.707C707.145 674.592 699.846 666.931 692.888 659.607C683.807 649.925 674.388 640.076 659.452 640.497C644.007 640.917 630.005 650.683 617.869 669.457C617.106 670.719 616.172 672.151 615.239 673.75C611.929 679.391 607.516 686.799 602.424 690.335C602.424 690.587 602.509 690.84 602.509 691.092C607.855 687.641 612.353 679.98 615.833 674.171Z" fill="url(#paint18_linear_25_66)"/>
<path d="M616.681 680.232C617.53 678.633 618.378 677.118 619.142 675.855C631.278 656.155 644.431 646.474 659.282 646.221C674.048 645.969 682.789 655.145 692.039 664.911C698.913 672.151 705.956 679.559 715.716 682.926C727.427 686.883 738.883 684.442 750 681.411C750 681.158 750 680.906 750 680.738C738.883 683.768 727.511 686.294 715.97 682.337C706.381 679.054 699.337 671.645 692.548 664.574C683.638 654.977 674.388 645.211 659.282 645.548C644.177 645.8 630.853 655.65 618.633 675.518C617.869 676.781 617.021 678.296 616.087 679.896C612.862 685.62 608.704 693.029 603.358 696.649C603.443 696.901 603.443 697.154 603.528 697.406C609.044 693.702 613.372 686.041 616.681 680.232Z" fill="url(#paint19_linear_25_66)"/>
<path d="M714.443 687.22C705.362 684.61 698.913 677.454 692.124 669.878C683.298 660.028 674.218 649.925 658.943 650.178C639.934 650.515 627.713 667.184 619.312 681.664C618.633 682.842 617.869 684.189 617.19 685.536C614.135 691.177 610.147 698.501 604.8 702.289C604.885 702.542 604.97 702.794 604.97 702.963C610.571 699.09 614.645 691.598 617.784 685.789C618.548 684.358 619.227 683.095 619.906 681.916C628.307 667.604 640.273 651.104 658.943 650.767C673.963 650.515 682.959 660.533 691.615 670.214C698.234 677.538 705.023 685.115 714.273 687.809C726.663 691.429 738.034 688.567 750 685.115C750 684.863 750 684.61 750 684.442C738.119 687.893 726.748 690.756 714.443 687.22Z" fill="url(#paint20_linear_25_66)"/>
<path d="M712.83 692.692C703.495 689.072 697.3 681.495 691.19 674.255C682.959 664.405 674.557 654.135 658.433 654.471C638.491 654.808 627.289 674.676 619.906 687.809C619.312 688.819 618.718 689.998 618.124 691.177C615.069 696.817 611.505 703.552 606.413 707.509C606.498 707.761 606.583 707.93 606.667 708.182C612.014 704.057 615.748 696.985 618.718 691.513C619.312 690.335 619.906 689.24 620.5 688.23C627.798 675.181 638.915 655.566 658.518 655.145C674.218 654.808 682.195 664.49 690.681 674.676C696.791 682 703.071 689.661 712.576 693.365C725.305 698.332 737.695 694.292 749.661 689.998C749.661 689.745 749.661 689.493 749.745 689.24C737.78 693.534 725.475 697.659 712.83 692.692Z" fill="url(#paint21_linear_25_66)"/>
<path d="M711.133 698.248C701.374 694.544 695.518 686.546 689.917 678.801C682.11 668.11 674.812 658.007 658.094 658.428C639.679 658.933 629.92 676.697 622.112 690.924C621.518 691.934 621.009 693.029 620.415 694.039C619.991 694.881 619.482 695.723 618.972 696.649C616.172 701.868 612.862 708.014 608.195 712.055C608.28 712.307 608.365 712.476 608.534 712.728C613.372 708.519 616.681 702.289 619.567 696.985C620.076 696.059 620.5 695.218 621.009 694.376C621.603 693.365 622.112 692.355 622.706 691.261C630.429 677.202 640.018 659.607 658.094 659.102C674.472 658.681 681.686 668.615 689.323 679.138C695.009 686.967 700.95 695.133 710.878 698.838C724.372 703.889 736.931 699.427 748.982 694.628C749.066 694.376 749.067 694.123 749.151 693.871C737.016 698.753 724.541 703.299 711.133 698.248Z" fill="url(#paint22_linear_25_66)"/>
<path d="M709.606 703.72C699.592 700.016 694.076 691.513 688.644 683.263C681.346 672.151 674.472 661.627 657.67 662.301C640.443 663.058 631.362 680.317 624.064 694.123C622.961 696.312 621.858 698.332 620.755 700.269C620.415 700.774 620.161 701.363 619.821 701.952C617.19 706.667 614.22 712.055 610.147 716.18C610.232 716.432 610.401 716.601 610.486 716.853C614.645 712.728 617.784 707.172 620.415 702.289C620.755 701.7 621.009 701.195 621.349 700.605C622.452 698.669 623.47 696.649 624.658 694.46C631.872 680.822 640.867 663.816 657.67 663.058C674.133 662.385 680.922 672.74 688.05 683.684C693.482 692.018 699.083 700.605 709.351 704.394C722.929 709.361 735.658 705.067 747.963 699.932C748.048 699.679 748.048 699.427 748.133 699.09C735.828 704.226 723.014 708.687 709.606 703.72Z" fill="url(#paint23_linear_25_66)"/>
<path d="M708.333 709.108C698.149 705.404 692.718 696.396 687.456 687.641C680.498 676.107 673.878 665.247 657.33 666.173C641.291 667.099 632.635 684.105 625.677 697.659C624.064 700.774 622.537 703.72 621.094 706.246L620.415 707.425C618.124 711.381 615.493 715.843 612.268 719.632C612.353 719.8 612.523 720.052 612.608 720.221C616.087 716.348 618.718 711.634 621.009 707.761L621.688 706.583C623.216 703.973 624.658 701.026 626.271 697.911C633.144 684.442 641.8 667.689 657.33 666.763C673.539 665.837 679.989 676.528 686.862 687.893C692.209 696.733 697.725 705.825 708.078 709.613C721.486 714.58 734.131 710.539 746.266 705.488C746.351 705.236 746.436 704.899 746.521 704.646C734.3 709.866 721.656 713.991 708.333 709.108Z" fill="url(#paint24_linear_25_66)"/>
<path d="M707.569 714.412C697.216 710.624 691.784 701.195 686.608 692.018C679.734 680.064 673.284 668.783 656.991 670.046C641.885 671.14 633.484 687.978 626.695 701.447C624.743 705.404 622.876 709.108 621.009 712.139L620.161 713.57C618.378 716.517 616.427 719.8 614.135 722.746C614.305 722.915 614.39 723.167 614.56 723.336C616.936 720.305 618.973 716.938 620.839 713.907L621.688 712.476C623.555 709.361 625.422 705.657 627.374 701.7C634.078 688.314 642.394 671.73 657.076 670.635C672.86 669.541 679.225 680.569 685.929 692.271C691.275 701.532 696.706 711.129 707.314 715.001C720.128 719.716 732.264 716.348 743.975 711.718C744.145 711.381 744.229 711.129 744.399 710.792C732.518 715.591 720.383 719.126 707.569 714.412Z" fill="url(#paint25_linear_25_66)"/>
<path d="M707.569 719.211C697.3 715.422 691.53 705.657 685.929 696.228C678.716 684.021 671.927 672.571 656.312 673.918C641.97 675.181 633.654 692.187 626.95 705.909C624.743 710.371 622.706 714.496 620.67 717.864L619.736 719.463C618.548 721.399 617.275 723.42 615.917 725.44C616.087 725.609 616.172 725.861 616.342 726.03C617.784 723.925 619.142 721.82 620.33 719.8L621.264 718.2C623.3 714.833 625.422 710.624 627.544 706.246C634.163 692.776 642.31 675.939 656.312 674.676C671.587 673.245 678.291 684.526 685.335 696.565C690.936 706.078 696.791 716.012 707.314 719.884C718.94 724.093 730.057 721.82 740.835 717.948C741.005 717.611 741.174 717.359 741.344 717.022C730.482 720.979 719.195 723.42 707.569 719.211Z" fill="url(#paint26_linear_25_66)"/>
<path d="M707.823 722.915C698.234 719.295 691.7 709.529 685.42 700.185C677.018 687.725 669.126 675.855 654.445 677.959C641.206 679.896 633.484 696.144 626.61 710.455C624.234 715.338 622.028 719.968 619.821 723.588L618.888 725.019C618.378 725.777 617.869 726.619 617.36 727.377C617.53 727.545 617.7 727.798 617.784 727.966C618.378 727.124 618.888 726.198 619.397 725.356L620.33 723.925C622.622 720.305 624.828 715.675 627.119 710.792C633.908 696.649 641.546 680.653 654.445 678.717C668.702 676.697 676.509 688.314 684.741 700.69C691.106 710.118 697.64 719.968 707.484 723.672C717.583 727.461 727.596 726.282 737.44 723.42C737.61 723.167 737.78 722.831 738.034 722.494C728.106 725.44 717.922 726.787 707.823 722.915Z" fill="url(#paint27_linear_25_66)"/>
<path d="M708.078 725.861C698.913 722.831 691.53 713.149 684.317 703.889C674.472 691.092 665.138 678.97 651.56 682.505C639.424 685.705 632.126 701.195 625.761 714.917C623.3 720.137 621.009 725.019 618.633 728.892C618.803 729.06 618.972 729.229 619.057 729.481C619.566 728.639 620.161 727.713 620.67 726.703C620.161 727.713 619.736 728.724 619.227 729.65C619.312 729.734 619.397 729.818 619.482 729.902C619.651 730.071 619.821 730.239 619.991 730.492L620.076 730.576C620.161 730.66 620.245 730.828 620.33 730.913C620.5 731.081 620.67 731.249 620.755 731.418C623.216 728.219 625.931 725.019 628.817 721.82C644.177 705.572 664.883 715.759 684.995 725.525C694.161 729.986 702.817 734.196 710.624 735.711C715.291 736.553 719.959 737.226 724.711 737.647C724.966 737.479 725.22 737.227 725.475 737.058C720.468 736.637 715.546 736.048 710.794 735.122C703.156 733.691 694.5 729.481 685.42 725.019C666.071 715.591 644.177 704.899 628.477 721.399C626.186 723.841 624.064 726.366 622.028 728.892C625.761 723.083 629.835 717.611 635.011 712.981C647.571 701.868 666.75 712.897 683.722 722.662C691.53 727.208 698.913 731.418 704.768 732.933C711.897 734.701 719.195 735.711 726.578 736.132C726.833 735.88 727.002 735.711 727.257 735.459C719.704 735.038 712.236 734.112 704.938 732.26C699.167 730.828 691.784 726.535 684.062 722.073C666.92 712.223 647.486 701.026 634.587 712.476C628.901 717.443 624.573 723.588 620.585 729.902C621.009 728.976 621.518 728.05 621.943 727.04C622.112 726.787 622.197 726.535 622.367 726.198C627.374 717.19 633.229 709.193 641.376 704.646C652.493 698.501 668.617 709.193 684.232 719.463C693.736 725.777 702.732 731.67 709.775 733.101C715.631 734.28 721.656 734.869 727.766 734.953C728.021 734.701 728.275 734.533 728.445 734.28C722.165 734.196 715.97 733.691 709.86 732.428C702.901 730.997 693.991 725.104 684.571 718.874C668.787 708.519 652.408 697.743 640.952 704.141C634.842 707.509 629.92 712.897 625.761 719.126C626.695 717.274 627.713 715.338 628.732 713.486C633.314 706.414 638.745 700.69 645.45 698.332C656.566 694.544 670.06 705.236 683.128 715.675C692.463 723.083 701.289 730.155 709.181 731.923C715.631 733.438 722.335 733.859 729.039 733.691C729.294 733.438 729.463 733.186 729.718 733.017C722.844 733.186 715.97 732.849 709.351 731.333C701.713 729.566 692.888 722.578 683.553 715.254C670.399 704.646 656.736 693.786 645.28 697.743C640.528 699.427 636.369 702.71 632.805 707.004C635.521 702.963 638.491 699.258 642.055 695.975C653.936 685.284 670.399 700.437 684.911 713.907C691.954 720.389 698.573 726.535 703.75 728.639C712.406 732.175 721.401 732.933 730.397 732.344C730.651 732.091 730.821 731.839 731.076 731.586C721.911 732.259 712.83 731.586 704.005 728.05C698.913 726.03 692.378 719.884 685.335 713.402C670.569 699.764 653.851 684.357 641.546 695.47C636.115 700.437 631.872 706.583 628.222 713.149C627.798 713.739 627.459 714.412 627.034 715.001C631.872 704.983 637.388 695.386 645.704 689.661C658.009 681.158 672.266 696.48 684.826 710.034C691.615 717.359 698.064 724.262 703.495 726.787C712.915 731.081 722.674 731.418 732.349 730.071C732.603 729.818 732.858 729.566 733.028 729.313C723.183 730.744 713.339 730.492 703.75 726.198C698.404 723.757 692.039 716.853 685.25 709.613C672.521 695.891 658.094 680.232 645.195 689.156C638.576 693.702 633.739 700.69 629.58 708.435C635.181 696.901 641.8 685.789 651.729 683.179C664.883 679.727 674.048 691.682 683.807 704.31C691.021 713.654 698.489 723.42 707.823 726.535C716.819 729.566 725.814 729.06 734.64 727.208C734.894 726.956 735.064 726.619 735.319 726.366C726.408 728.387 717.243 728.976 708.078 725.861Z" fill="url(#paint28_linear_25_66)"/>
<path d="M684.317 727.629C663.95 719.042 642.819 710.118 624.743 728.387C623.555 729.565 622.452 730.828 621.349 732.007C621.518 732.175 621.688 732.344 621.858 732.512C622.961 731.249 624.064 730.071 625.252 728.808C642.989 710.876 663.865 719.716 684.062 728.219C692.972 732.007 702.307 735.879 711.133 737.395C715.122 738.068 719.11 738.573 723.183 738.994C723.438 738.826 723.693 738.573 723.862 738.405C719.619 737.984 715.376 737.395 711.218 736.721C702.477 735.29 693.227 731.418 684.317 727.629Z" fill="url(#paint29_linear_25_66)"/>
<path d="M682.025 729.313C672.69 725.272 663.101 721.147 653.511 719.884C640.952 718.2 631.278 725.777 622.791 733.438C622.961 733.607 623.131 733.775 623.3 733.943C631.702 726.366 641.206 718.958 653.427 720.558C662.931 721.82 672.521 725.946 681.771 729.902C689.663 733.27 697.81 736.806 705.787 738.489C710.709 739.5 715.716 740.341 720.722 740.931C720.977 740.762 721.232 740.51 721.486 740.341C716.225 739.668 710.963 738.826 705.872 737.816C697.979 736.216 689.917 732.68 682.025 729.313Z" fill="url(#paint30_linear_25_66)"/>
<path d="M683.722 733.27C674.982 729.818 665.986 726.198 657.076 725.104C643.073 723.336 634.333 728.387 624.998 735.711C625.167 735.88 625.337 736.048 625.507 736.216C634.672 728.976 643.328 724.093 656.991 725.777C665.817 726.872 674.812 730.492 683.468 733.943C690.851 736.89 698.489 739.92 705.872 741.352C709.69 742.109 713.509 742.783 717.413 743.288C717.667 743.12 717.922 742.867 718.177 742.699C714.018 742.109 709.945 741.436 705.956 740.594C698.743 739.247 691.106 736.216 683.722 733.27Z" fill="url(#paint31_linear_25_66)"/>
<path d="M684.401 737.227C674.982 733.607 665.307 729.902 655.972 729.145C644.007 728.134 635.86 732.344 627.798 738.153C627.968 738.321 628.138 738.489 628.307 738.573C636.2 732.849 644.261 728.808 655.888 729.818C665.138 730.576 674.812 734.28 684.147 737.816C691.445 740.594 698.913 743.456 706.041 744.887C708.333 745.308 710.539 745.729 712.83 746.15C713.17 745.982 713.424 745.813 713.764 745.645C711.218 745.224 708.672 744.803 706.126 744.298C699.167 742.867 691.615 740.005 684.401 737.227Z" fill="url(#paint32_linear_25_66)"/>
<path d="M677.018 741.688C669.72 739.752 662.252 737.816 654.954 736.132C646.553 734.196 638.745 736.974 631.532 741.267C631.702 741.436 631.956 741.52 632.126 741.688C639.17 737.563 646.722 734.953 654.784 736.806C662.083 738.489 669.55 740.426 676.849 742.362C686.523 744.887 696.452 747.581 706.041 749.518C706.126 749.518 706.126 749.518 706.211 749.518C706.55 749.349 706.975 749.181 707.314 749.013C706.975 748.928 706.55 748.844 706.211 748.76C696.622 746.824 686.693 744.214 677.018 741.688Z" fill="url(#paint33_linear_25_66)"/>
<path d="M655.888 739.079C647.232 738.237 640.528 740.089 634.502 743.372C634.757 743.54 634.927 743.625 635.181 743.793C641.037 740.678 647.486 738.994 655.803 739.752C665.053 740.678 674.642 744.466 683.892 748.086C688.135 749.77 692.548 751.454 696.876 752.885C697.3 752.801 697.64 752.633 698.064 752.548C693.397 751.033 688.729 749.181 684.147 747.413C674.897 743.793 665.307 740.005 655.888 739.079Z" fill="url(#paint34_linear_25_66)"/>
<path d="M657.33 744.382C649.778 743.12 643.837 743.793 638.491 745.729C638.745 745.898 639 746.066 639.255 746.15C644.346 744.382 650.032 743.793 657.161 744.972C666.071 746.487 674.897 750.275 683.553 753.98C684.401 754.316 685.335 754.737 686.183 755.074C686.608 754.99 687.032 754.99 687.541 754.906C686.268 754.4 685.08 753.811 683.807 753.306C675.236 749.77 666.326 745.898 657.33 744.382Z" fill="url(#paint35_linear_25_66)"/>
<path d="M643.413 748.423C643.837 748.592 644.177 748.76 644.601 749.013C648.844 748.592 653.596 749.097 659.197 750.528C664.204 751.875 669.041 753.727 673.878 755.916C674.472 755.916 675.067 755.916 675.661 756C670.399 753.643 664.968 751.454 659.452 749.939C653.172 748.255 648.08 747.75 643.413 748.423Z" fill="url(#paint36_linear_25_66)"/>
<path d="M22.4859 45C10.1032 45 0 34.8968 0 22.4859C0 10.1032 10.1032 0 22.4859 0C34.8968 0 44.9719 10.1032 44.9719 22.4859C45 34.8968 34.8968 45 22.4859 45ZM22.4859 2.16698C11.2852 2.16698 2.16698 11.2852 2.16698 22.4859C2.16698 33.6867 11.2852 42.833 22.5141 42.833C33.743 42.833 42.8612 33.7148 42.8612 22.4859C42.833 11.2852 33.7148 2.16698 22.4859 2.16698Z" fill="#6E46E5"/>
<path d="M1838.49 373C1832.16 373 1827 367.836 1827 361.493C1827 355.164 1832.16 350 1838.49 350C1844.84 350 1849.99 355.164 1849.99 361.493C1850 367.836 1844.84 373 1838.49 373ZM1838.49 351.108C1832.77 351.108 1828.11 355.768 1828.11 361.493C1828.11 367.218 1832.77 371.892 1838.51 371.892C1844.25 371.892 1848.91 367.232 1848.91 361.493C1848.89 355.768 1844.23 351.108 1838.49 351.108Z" fill="#6E46E5"/>
<path d="M172.493 640C166.164 640 161 634.836 161 628.493C161 622.164 166.164 617 172.493 617C178.836 617 183.986 622.164 183.986 628.493C184 634.836 178.836 640 172.493 640ZM172.493 618.108C166.768 618.108 162.108 622.768 162.108 628.493C162.108 634.218 166.768 638.892 172.507 638.892C178.246 638.892 182.907 634.232 182.907 628.493C182.892 622.768 178.232 618.108 172.493 618.108Z" fill="#6E46E5"/>
<path d="M1480.9 621L1482.7 642.3C1482.5 642.3 1482.3 642.3 1482.1 642.4L1480 621.1C1480.3 621.1 1480.6 621 1480.9 621ZM1494.8 621.8C1495.1 621.9 1495.4 621.9 1495.7 622L1491.3 642.9C1491.1 642.9 1490.9 642.8 1490.8 642.8L1494.8 621.8ZM1508.8 626.7C1509.1 626.8 1509.4 627 1509.6 627.1L1499.3 645.8C1499.1 645.7 1499 645.6 1498.8 645.5L1508.8 626.7ZM1520.8 635.5C1521 635.7 1521.2 635.9 1521.5 636.2L1506.2 651C1506.1 650.9 1505.9 650.7 1505.8 650.6L1520.8 635.5ZM1529.7 647.3C1529.9 647.6 1530 647.9 1530.1 648.1L1511.2 658C1511.1 657.8 1511 657.7 1511 657.5L1529.7 647.3ZM1534.8 661.3C1534.9 661.6 1534.9 661.9 1535 662.2L1514 666.1C1514 665.9 1513.9 665.8 1513.9 665.6L1534.8 661.3ZM1514.4 674.2L1535.6 676.1C1535.6 676.4 1535.5 676.7 1535.5 677L1514.3 674.7C1514.3 674.6 1514.4 674.4 1514.4 674.2ZM1512.4 682.6L1532.2 690.6C1532.1 690.9 1532 691.2 1531.8 691.5L1512.2 683C1512.2 682.9 1512.3 682.7 1512.4 682.6ZM1508 690L1524.6 703.4C1524.4 703.6 1524.2 703.9 1524 704.1L1507.6 690.4C1507.8 690.2 1507.9 690.1 1508 690ZM1501.7 695.8L1513.7 713.4C1513.4 713.6 1513.2 713.7 1512.9 713.9L1501.2 696.1C1501.4 696 1501.5 695.9 1501.7 695.8ZM1493.9 699.6L1500.3 720C1500 720.1 1499.7 720.2 1499.4 720.3L1493.3 699.8C1493.6 699.7 1493.8 699.6 1493.9 699.6ZM1485.4 700.9L1485.6 722.2H1484.7L1484.9 700.9H1485.4Z" fill="url(#paint37_linear_25_66)"/>
<path d="M150 813.338L218.997 747.007L285.341 816.003L216.345 882.335L150 813.338ZM218.983 748.023L151.023 813.358L216.372 881.319L284.332 815.983L218.983 748.023Z" fill="#FFD119"/>
<path d="M158.441 813.498L218.844 755.441L276.92 815.837L216.517 873.894L158.441 813.498ZM218.818 756.457L159.451 813.518L216.531 872.878L275.898 815.817L218.818 756.457Z" fill="#FFD119"/>
<path d="M166.876 813.664L218.672 763.869L268.473 815.67L216.676 865.466L166.876 813.664ZM218.652 764.891L167.892 813.691L216.696 864.456L267.456 815.657L218.652 764.891Z" fill="#FFD119"/>
<path d="M175.31 813.831L218.506 772.303L260.038 815.504L216.842 857.032L175.31 813.831ZM218.486 773.326L176.326 813.858L216.862 856.022L259.022 815.49L218.486 773.326Z" fill="#FFD119"/>
<path d="M183.744 813.997L218.341 780.737L251.604 815.337L217.008 848.597L183.744 813.997ZM218.321 781.76L184.76 814.024L217.027 847.588L250.588 815.324L218.321 781.76Z" fill="#FFD119"/>
<path d="M192.179 814.164L218.175 789.172L243.17 815.171L217.173 840.163L192.179 814.164ZM218.155 790.194L193.195 814.191L217.193 839.153L242.153 815.157L218.155 790.194Z" fill="#FFD119"/>
<path d="M217.339 831.729L200.613 814.331L218.009 797.606L234.735 815.004L217.339 831.729ZM201.629 814.357L217.359 830.719L233.719 814.991L217.989 798.629L201.629 814.357Z" fill="#FFD119"/>
<path d="M1394 929.422H1384.58V920H1383.42V929.422H1374V930.578H1383.42V940H1384.58V930.578H1394V929.422Z" fill="#FF9C00"/>
<path d="M46 1091.42H36.5785V1082H35.4215V1091.42H26V1092.58H35.4215V1102H36.5785V1092.58H46V1091.42Z" fill="#FF9C00"/>
<path d="M447 721.422H437.579V712H436.421V721.422H427V722.578H436.421V732H437.579V722.578H447V721.422Z" fill="#FF9C00"/>
<path d="M79 829.422H69.5785V820H68.4215V829.422H59V830.578H68.4215V840H69.5785V830.578H79V829.422Z" fill="#FF9C00"/>
<path d="M1678 201.421H1668.58V192H1667.42V201.421H1658V202.579H1667.42V212H1668.58V202.579H1678V201.421Z" fill="#FF9C00"/>
<defs>
<linearGradient id="paint0_linear_25_66" x1="-1.82694" y1="611.596" x2="2001.11" y2="611.596" gradientUnits="userSpaceOnUse">
<stop stop-color="#B346F7"/>
<stop offset="0.9731" stop-color="#1925E8"/>
</linearGradient>
<linearGradient id="paint1_linear_25_66" x1="-1.82694" y1="611.596" x2="2001.11" y2="611.596" gradientUnits="userSpaceOnUse">
<stop stop-color="#B346F7"/>
<stop offset="0.9731" stop-color="#1925E8"/>
</linearGradient>
<linearGradient id="paint2_linear_25_66" x1="-1.82694" y1="611.596" x2="2001.11" y2="611.596" gradientUnits="userSpaceOnUse">
<stop stop-color="#B346F7"/>
<stop offset="0.9731" stop-color="#1925E8"/>
</linearGradient>
<linearGradient id="paint3_linear_25_66" x1="-1.82694" y1="611.596" x2="2001.11" y2="611.596" gradientUnits="userSpaceOnUse">
<stop stop-color="#B346F7"/>
<stop offset="0.9731" stop-color="#1925E8"/>
</linearGradient>
<linearGradient id="paint4_linear_25_66" x1="-1.82694" y1="611.596" x2="2001.11" y2="611.596" gradientUnits="userSpaceOnUse">
<stop stop-color="#B346F7"/>
<stop offset="0.9731" stop-color="#1925E8"/>
</linearGradient>
<linearGradient id="paint5_linear_25_66" x1="-1.82694" y1="611.596" x2="2001.11" y2="611.596" gradientUnits="userSpaceOnUse">
<stop stop-color="#B346F7"/>
<stop offset="0.9731" stop-color="#1925E8"/>
</linearGradient>
<linearGradient id="paint6_linear_25_66" x1="-1.82694" y1="611.596" x2="2001.11" y2="611.596" gradientUnits="userSpaceOnUse">
<stop stop-color="#B346F7"/>
<stop offset="0.9731" stop-color="#1925E8"/>
</linearGradient>
<linearGradient id="paint7_linear_25_66" x1="-1.82694" y1="611.596" x2="2001.11" y2="611.596" gradientUnits="userSpaceOnUse">
<stop stop-color="#B346F7"/>
<stop offset="0.9731" stop-color="#1925E8"/>
</linearGradient>
<linearGradient id="paint8_linear_25_66" x1="-1.82694" y1="611.596" x2="2001.11" y2="611.596" gradientUnits="userSpaceOnUse">
<stop stop-color="#B346F7"/>
<stop offset="0.9731" stop-color="#1925E8"/>
</linearGradient>
<linearGradient id="paint9_linear_25_66" x1="-1.82694" y1="611.596" x2="2001.11" y2="611.596" gradientUnits="userSpaceOnUse">
<stop stop-color="#B346F7"/>
<stop offset="0.9731" stop-color="#1925E8"/>
</linearGradient>
<linearGradient id="paint10_linear_25_66" x1="-1.82694" y1="611.596" x2="2001.11" y2="611.596" gradientUnits="userSpaceOnUse">
<stop stop-color="#B346F7"/>
<stop offset="0.9731" stop-color="#1925E8"/>
</linearGradient>
<linearGradient id="paint11_linear_25_66" x1="-1.82694" y1="611.596" x2="2001.11" y2="611.596" gradientUnits="userSpaceOnUse">
<stop stop-color="#B346F7"/>
<stop offset="0.9731" stop-color="#1925E8"/>
</linearGradient>
<linearGradient id="paint12_linear_25_66" x1="-1.82694" y1="611.596" x2="2001.11" y2="611.596" gradientUnits="userSpaceOnUse">
<stop stop-color="#B346F7"/>
<stop offset="0.9731" stop-color="#1925E8"/>
</linearGradient>
<linearGradient id="paint13_linear_25_66" x1="-1.82694" y1="611.596" x2="2001.11" y2="611.596" gradientUnits="userSpaceOnUse">
<stop stop-color="#B346F7"/>
<stop offset="0.9731" stop-color="#1925E8"/>
</linearGradient>
<linearGradient id="paint14_linear_25_66" x1="-1.82694" y1="611.596" x2="2001.11" y2="611.596" gradientUnits="userSpaceOnUse">
<stop stop-color="#B346F7"/>
<stop offset="0.9731" stop-color="#1925E8"/>
</linearGradient>
<linearGradient id="paint15_linear_25_66" x1="-1.82694" y1="611.596" x2="2001.11" y2="611.596" gradientUnits="userSpaceOnUse">
<stop stop-color="#B346F7"/>
<stop offset="0.9731" stop-color="#1925E8"/>
</linearGradient>
<linearGradient id="paint16_linear_25_66" x1="-1.82694" y1="611.596" x2="2001.11" y2="611.596" gradientUnits="userSpaceOnUse">
<stop stop-color="#B346F7"/>
<stop offset="0.9731" stop-color="#1925E8"/>
</linearGradient>
<linearGradient id="paint17_linear_25_66" x1="0" y1="613.099" x2="2004.66" y2="613.099" gradientUnits="userSpaceOnUse">
<stop stop-color="#6E46E5"/>
<stop offset="0.4032" stop-color="#F88D2F"/>
<stop offset="0.7151" stop-color="#F65B00"/>
</linearGradient>
<linearGradient id="paint18_linear_25_66" x1="-0.245618" y1="613.381" x2="2003.25" y2="613.381" gradientUnits="userSpaceOnUse">
<stop stop-color="#6E46E5"/>
<stop offset="0.4032" stop-color="#F88D2F"/>
<stop offset="0.7151" stop-color="#F65B00"/>
</linearGradient>
<linearGradient id="paint19_linear_25_66" x1="-0.111278" y1="611.192" x2="2003.4" y2="611.192" gradientUnits="userSpaceOnUse">
<stop stop-color="#6E46E5"/>
<stop offset="0.4032" stop-color="#F88D2F"/>
<stop offset="0.7151" stop-color="#F65B00"/>
</linearGradient>
<linearGradient id="paint20_linear_25_66" x1="-1.12149" y1="612.622" x2="2003.11" y2="612.622" gradientUnits="userSpaceOnUse">
<stop stop-color="#6E46E5"/>
<stop offset="0.4032" stop-color="#F88D2F"/>
<stop offset="0.7151" stop-color="#F65B00"/>
</linearGradient>
<linearGradient id="paint21_linear_25_66" x1="-0.296477" y1="612.024" x2="2002.85" y2="612.024" gradientUnits="userSpaceOnUse">
<stop stop-color="#6E46E5"/>
<stop offset="0.4032" stop-color="#F88D2F"/>
<stop offset="0.7151" stop-color="#F65B00"/>
</linearGradient>
<linearGradient id="paint22_linear_25_66" x1="0.7971" y1="613.139" x2="2003.1" y2="613.139" gradientUnits="userSpaceOnUse">
<stop stop-color="#6E46E5"/>
<stop offset="0.4032" stop-color="#F88D2F"/>
<stop offset="0.7151" stop-color="#F65B00"/>
</linearGradient>
<linearGradient id="paint23_linear_25_66" x1="0.841359" y1="612.208" x2="2002.94" y2="612.208" gradientUnits="userSpaceOnUse">
<stop stop-color="#6E46E5"/>
<stop offset="0.4032" stop-color="#F88D2F"/>
<stop offset="0.7151" stop-color="#F65B00"/>
</linearGradient>
<linearGradient id="paint24_linear_25_66" x1="-1.24966" y1="613.291" x2="2003.92" y2="613.291" gradientUnits="userSpaceOnUse">
<stop stop-color="#6E46E5"/>
<stop offset="0.4032" stop-color="#F88D2F"/>
<stop offset="0.7151" stop-color="#F65B00"/>
</linearGradient>
<linearGradient id="paint25_linear_25_66" x1="-0.499771" y1="612.542" x2="2002.15" y2="612.542" gradientUnits="userSpaceOnUse">
<stop stop-color="#6E46E5"/>
<stop offset="0.4032" stop-color="#F88D2F"/>
<stop offset="0.7151" stop-color="#F65B00"/>
</linearGradient>
<linearGradient id="paint26_linear_25_66" x1="0.0813126" y1="611.365" x2="2003.26" y2="611.365" gradientUnits="userSpaceOnUse">
<stop stop-color="#6E46E5"/>
<stop offset="0.4032" stop-color="#F88D2F"/>
<stop offset="0.7151" stop-color="#F65B00"/>
</linearGradient>
<linearGradient id="paint27_linear_25_66" x1="1.17053" y1="612.479" x2="2004.3" y2="612.479" gradientUnits="userSpaceOnUse">
<stop stop-color="#6E46E5"/>
<stop offset="0.4032" stop-color="#F88D2F"/>
<stop offset="0.7151" stop-color="#F65B00"/>
</linearGradient>
<linearGradient id="paint28_linear_25_66" x1="0.224336" y1="612.981" x2="2004.2" y2="612.981" gradientUnits="userSpaceOnUse">
<stop stop-color="#6E46E5"/>
<stop offset="0.4032" stop-color="#F88D2F"/>
<stop offset="0.7151" stop-color="#F65B00"/>
</linearGradient>
<linearGradient id="paint29_linear_25_66" x1="0.704698" y1="616.264" x2="2003.07" y2="616.264" gradientUnits="userSpaceOnUse">
<stop stop-color="#6E46E5"/>
<stop offset="0.4032" stop-color="#F88D2F"/>
<stop offset="0.7151" stop-color="#F65B00"/>
</linearGradient>
<linearGradient id="paint30_linear_25_66" x1="-0.664796" y1="615.095" x2="2003.31" y2="615.095" gradientUnits="userSpaceOnUse">
<stop stop-color="#6E46E5"/>
<stop offset="0.4032" stop-color="#F88D2F"/>
<stop offset="0.7151" stop-color="#F65B00"/>
</linearGradient>
<linearGradient id="paint31_linear_25_66" x1="0.667667" y1="612.754" x2="2005.87" y2="612.754" gradientUnits="userSpaceOnUse">
<stop stop-color="#6E46E5"/>
<stop offset="0.4032" stop-color="#F88D2F"/>
<stop offset="0.7151" stop-color="#F65B00"/>
</linearGradient>
<linearGradient id="paint32_linear_25_66" x1="-0.203661" y1="614.409" x2="2004.48" y2="614.409" gradientUnits="userSpaceOnUse">
<stop stop-color="#6E46E5"/>
<stop offset="0.4032" stop-color="#F88D2F"/>
<stop offset="0.7151" stop-color="#F65B00"/>
</linearGradient>
<linearGradient id="paint33_linear_25_66" x1="0.630283" y1="610.145" x2="2004.62" y2="610.145" gradientUnits="userSpaceOnUse">
<stop stop-color="#6E46E5"/>
<stop offset="0.4032" stop-color="#F88D2F"/>
<stop offset="0.7151" stop-color="#F65B00"/>
</linearGradient>
<linearGradient id="paint34_linear_25_66" x1="1.45478" y1="614.268" x2="2003.64" y2="614.268" gradientUnits="userSpaceOnUse">
<stop stop-color="#6E46E5"/>
<stop offset="0.4032" stop-color="#F88D2F"/>
<stop offset="0.7151" stop-color="#F65B00"/>
</linearGradient>
<linearGradient id="paint35_linear_25_66" x1="-0.835161" y1="620.83" x2="2002.81" y2="620.83" gradientUnits="userSpaceOnUse">
<stop stop-color="#6E46E5"/>
<stop offset="0.4032" stop-color="#F88D2F"/>
<stop offset="0.7151" stop-color="#F65B00"/>
</linearGradient>
<linearGradient id="paint36_linear_25_66" x1="560.927" y1="1184.82" x2="996.262" y2="1184.82" gradientUnits="userSpaceOnUse">
<stop stop-color="#6E46E5"/>
<stop offset="0.4032" stop-color="#F88D2F"/>
<stop offset="0.7151" stop-color="#F65B00"/>
</linearGradient>
<linearGradient id="paint37_linear_25_66" x1="2602.17" y1="-286.78" x2="1965.01" y2="2178.39" gradientUnits="userSpaceOnUse">
<stop stop-color="#420DBD"/>
<stop offset="0.1613" stop-color="#6E46E5"/>
<stop offset="0.5215" stop-color="#F88D2F"/>
<stop offset="1" stop-color="#F88D2F"/>
</linearGradient>
</defs>
</svg>
