<svg width="45" height="50" viewBox="0 0 45 50" fill="none" xmlns="http://www.w3.org/2000/svg">
<path d="M5.60713 47.4516C5.60713 48.3068 6.2947 49 7.14282 49H42.4642C43.3124 49 44 48.3068 44 47.4516V9.38329C44 8.97264 43.8381 8.57878 43.5502 8.28837L36.771 1.45354C36.483 1.16312 36.0923 1 35.685 1H7.14282C6.2947 1 5.60713 1.69325 5.60713 2.54836V27.3228M35.5536 1.00002V8.74193C35.5536 9.16948 35.8973 9.51611 36.3214 9.51611H43.9999M23.1104 34.313H20.639V40.4612M20.6389 37.3289H22.914M13.5818 34.3882V40.2947M7.12058 34.2903V40.4839M7.12058 34.2903C7.12058 34.2903 7.1248 35.6385 7.1248 36.0382C7.1248 36.5247 7.13246 37.7937 7.13246 37.7937C7.13246 37.7937 8.35617 37.786 8.83099 37.786C9.7884 37.786 10.5985 37.0035 10.5985 36.0382C10.5985 35.0729 9.7884 34.2904 8.83099 34.2904L7.12058 34.2903ZM1 28.0968V42.0322C1 43.315 2.03136 44.3549 3.30353 44.3549H27.1071C27.9553 44.3549 28.6429 43.6616 28.6429 42.8064V31.9678C28.6429 31.1126 27.9553 30.4193 27.1071 30.4193H3.30353C2.03136 30.4193 1 29.3796 1 28.0968ZM1 28.0968C1 26.8141 2.03136 25.7742 3.30353 25.7742H5.60716M17.6774 37.3871C17.6774 39.0432 16.7658 40.3536 15.3195 40.3791C14.838 40.3876 13.5939 40.3923 13.5939 40.3923C13.5939 40.3923 13.5862 38.2153 13.5862 37.3805C13.5862 36.6949 13.5818 34.382 13.5818 34.382H15.2702C16.8565 34.382 17.6774 35.7311 17.6774 37.3871ZM16.2409 25.8724C13.6994 21.9164 34.8771 18.2579 33.6899 21.9104C31.8654 27.5232 18.0678 8.61352 24.0532 8.93967C27.5149 9.12839 18.9074 30.023 16.2409 25.8724Z" stroke="#FF9C00" stroke-miterlimit="10" stroke-linecap="round" stroke-linejoin="round"/>
</svg>
