<svg width="20" height="21" viewBox="0 0 20 21" fill="none" xmlns="http://www.w3.org/2000/svg">
<path d="M20 10.5C20 12.3665 19.4776 14.1957 18.492 15.7807C17.5064 17.3657 16.0969 18.6432 14.4229 19.4687C12.7489 20.2942 10.8773 20.6348 9.01983 20.4518C7.16235 20.2689 5.39315 19.5698 3.91239 18.4335C2.43162 17.2973 1.2984 15.7693 0.640941 14.0225C-0.0165209 12.2757 -0.171982 10.3797 0.192147 8.5491C0.556276 6.7185 1.42546 5.02634 2.70136 3.66408C3.97726 2.30181 5.60895 1.32382 7.41181 0.840742L8.05886 3.25556C6.70671 3.61786 5.48294 4.35136 4.52602 5.37306C3.5691 6.39476 2.91721 7.66387 2.64411 9.03682C2.37101 10.4098 2.48761 11.8317 2.98071 13.1419C3.4738 14.452 4.32372 15.598 5.43429 16.4501C6.54486 17.3023 7.87177 17.8267 9.26487 17.9639C10.658 18.1011 12.0617 17.8457 13.3172 17.2265C14.5726 16.6074 15.6298 15.6493 16.369 14.4605C17.1082 13.2718 17.5 11.8998 17.5 10.5H20Z" fill="black"/>
</svg>
