<svg width="318" height="318" viewBox="0 0 318 318" fill="none" xmlns="http://www.w3.org/2000/svg">
<g opacity="0.5">
<path d="M158.979 318C155.722 318 152.381 317.915 149.125 317.704L149.336 314.448C152.55 314.659 155.765 314.744 158.979 314.744V318ZM162.32 317.958L162.235 314.702C165.45 314.617 168.706 314.448 171.878 314.194L172.132 317.45C168.918 317.704 165.619 317.873 162.32 317.958ZM139.313 316.774C136.056 316.351 132.8 315.843 129.585 315.251L130.177 312.038C133.307 312.63 136.521 313.137 139.736 313.518L139.313 316.774ZM181.944 316.351L181.479 313.137C184.651 312.672 187.865 312.122 190.995 311.445L191.671 314.617C188.457 315.294 185.2 315.843 181.944 316.351ZM119.943 313.137C116.771 312.334 113.599 311.403 110.469 310.431L111.484 307.344C114.529 308.316 117.659 309.204 120.746 310.008L119.943 313.137ZM201.229 312.291L200.384 309.162C203.471 308.316 206.558 307.344 209.603 306.286L210.661 309.373C207.573 310.431 204.401 311.403 201.229 312.291ZM101.165 307.132C98.1194 305.948 95.0743 304.637 92.0715 303.242L93.4249 300.282C96.3431 301.635 99.3459 302.904 102.306 304.088L101.165 307.132ZM219.838 305.864L218.569 302.861C221.53 301.635 224.49 300.282 227.366 298.886L228.804 301.804C225.886 303.242 222.883 304.637 219.838 305.864ZM83.2746 298.802C80.3987 297.237 77.5228 295.546 74.7738 293.812L76.5078 291.063C79.2145 292.755 82.0481 294.404 84.8395 295.926L83.2746 298.802ZM237.517 297.195L235.91 294.362C238.701 292.797 241.45 291.063 244.157 289.329L245.933 292.036C243.184 293.854 240.35 295.588 237.517 297.195ZM66.569 288.315C63.9045 286.412 61.2823 284.382 58.7448 282.31L60.8171 279.773C63.3124 281.802 65.8923 283.79 68.4721 285.65L66.569 288.315ZM254.011 286.412L252.065 283.79C254.645 281.887 257.183 279.857 259.636 277.785L261.75 280.28C259.213 282.394 256.633 284.466 254.011 286.412ZM51.3012 275.882C48.8905 273.683 46.5221 271.357 44.2806 268.989L46.649 266.748C48.8483 269.074 51.1744 271.315 53.5428 273.514L51.3012 275.882ZM269.025 273.683L266.783 271.357C269.109 269.116 271.351 266.833 273.55 264.465L275.961 266.664C273.677 269.032 271.393 271.4 269.025 273.683ZM37.6406 261.674C35.526 259.179 33.4537 256.599 31.5082 253.977L34.1303 252.032C36.0335 254.612 38.0636 257.149 40.1359 259.602L37.6406 261.674ZM282.347 259.179L279.81 257.107C281.84 254.612 283.827 252.032 285.688 249.41L288.353 251.313C286.45 254.02 284.419 256.642 282.347 259.179ZM25.8832 245.901C24.1069 243.152 22.3729 240.319 20.7235 237.486L23.5571 235.879C25.122 238.67 26.8137 241.418 28.59 244.125L25.8832 245.901ZM293.851 243.152L291.102 241.418C292.793 238.712 294.443 235.879 295.965 233.088L298.841 234.652C297.276 237.528 295.585 240.361 293.851 243.152ZM16.1136 228.774C14.6756 225.857 13.3223 222.812 12.0535 219.81L15.0563 218.541C16.2827 221.501 17.6361 224.461 19.0318 227.337L16.1136 228.774ZM303.24 225.814L300.279 224.461C301.633 221.543 302.901 218.583 304.086 215.581L307.131 216.765C305.947 219.81 304.635 222.854 303.24 225.814ZM8.58545 210.633C7.52813 207.546 6.55539 204.375 5.66724 201.203L8.79691 200.358C9.64277 203.445 10.6155 206.531 11.6728 209.576L8.58545 210.633ZM310.43 207.462L307.342 206.489C308.315 203.445 309.203 200.315 310.007 197.228L313.179 198.032C312.375 201.161 311.445 204.333 310.43 207.462ZM3.34114 191.646C2.66445 188.433 2.07235 185.177 1.60713 181.963L4.82139 181.498C5.28661 184.669 5.83641 187.883 6.5131 191.012L3.34114 191.646ZM315.293 188.348L312.079 187.756C312.671 184.627 313.179 181.413 313.559 178.199L316.773 178.58C316.393 181.878 315.885 185.134 315.293 188.348ZM0.507514 172.152C0.253757 168.896 0.0845857 165.598 0 162.299L3.25655 162.215C3.34114 165.428 3.46801 168.685 3.76406 171.856L0.507514 172.152ZM317.704 168.811L314.447 168.6C314.659 165.428 314.743 162.172 314.743 159.001L318 158.959V159.001C318 162.257 317.915 165.555 317.704 168.811ZM3.34114 152.573L0.0845857 152.446C0.211464 149.19 0.465221 145.85 0.803564 142.636L4.06011 142.974C3.72177 146.146 3.46801 149.359 3.34114 152.573ZM314.447 149.317C314.236 146.103 313.94 142.89 313.559 139.718L316.773 139.337C317.196 142.594 317.492 145.892 317.704 149.148L314.447 149.317ZM5.3289 133.375L2.11464 132.867C2.66445 129.654 3.29884 126.398 4.01782 123.184L7.18979 123.903C6.47081 127.032 5.83641 130.203 5.3289 133.375ZM312.079 130.161C311.487 127.032 310.768 123.86 310.007 120.731L313.179 119.928C313.982 123.099 314.701 126.355 315.293 129.569L312.079 130.161ZM9.68506 114.6L6.55539 113.669C7.48584 110.54 8.54316 107.368 9.68506 104.281L12.7302 105.423C11.6305 108.426 10.5732 111.513 9.68506 114.6ZM307.342 111.47C306.369 108.426 305.27 105.381 304.086 102.379L307.131 101.195C308.315 104.239 309.457 107.368 310.43 110.498L307.342 111.47ZM16.325 96.4584L13.3645 95.1475C14.6756 92.1451 16.1136 89.1427 17.6361 86.2249L20.512 87.705C19.0318 90.5805 17.6361 93.4983 16.325 96.4584ZM300.279 93.4983C298.926 90.5805 297.488 87.705 295.923 84.8717L298.799 83.3071C300.364 86.1826 301.844 89.1427 303.24 92.1028L300.279 93.4983ZM25.2065 79.2899L22.4152 77.6407C24.1069 74.8497 25.8832 72.0588 27.7441 69.3524L30.4086 71.1708C28.59 73.7925 26.856 76.5412 25.2065 79.2899ZM291.102 76.5412C289.41 73.8348 287.591 71.1285 285.731 68.5067L288.395 66.6038C290.298 69.2678 292.159 72.0165 293.893 74.7651L291.102 76.5412ZM36.1181 63.3477L33.5382 61.3602C35.5683 58.7807 37.6829 56.2434 39.8399 53.7908L42.2929 55.9474C40.1782 58.3155 38.1059 60.8104 36.1181 63.3477ZM279.852 60.895C277.822 58.4001 275.707 55.9474 273.55 53.5793L275.961 51.3804C278.16 53.7908 280.359 56.2857 282.432 58.8229L279.852 60.895ZM48.9328 48.8855L46.649 46.602C48.9751 44.2762 51.3858 42.035 53.8388 39.8361L55.9957 42.2887C53.5428 44.4031 51.1744 46.6443 48.9328 48.8855ZM266.783 46.6866C264.457 44.4876 262.047 42.2887 259.594 40.2167L261.708 37.7217C264.203 39.8361 266.656 42.0773 269.025 44.3185L266.783 46.6866ZM63.397 36.1148L61.4092 33.5353C63.9891 31.5055 66.6535 29.5603 69.3603 27.6997L71.1789 30.3638C68.5144 32.2244 65.8923 34.1273 63.397 36.1148ZM252.065 34.2119C249.486 32.309 246.821 30.4061 244.157 28.6723L245.933 25.9659C248.682 27.742 251.389 29.6449 254.011 31.6324L252.065 34.2119ZM79.2991 25.2048L77.6497 22.4138C80.441 20.7223 83.3592 19.1154 86.2351 17.6354L87.7154 20.5109C84.8818 21.991 82.0481 23.5556 79.2991 25.2048ZM235.91 23.5979C233.118 21.991 230.242 20.4686 227.366 19.0732L228.804 16.1553C231.723 17.5931 234.683 19.1577 237.517 20.7646L235.91 23.5979ZM96.4277 16.3668L95.1166 13.4067C98.1194 12.0958 101.165 10.8695 104.252 9.72773L105.394 12.7724C102.349 13.8719 99.3459 15.0982 96.4277 16.3668ZM218.569 15.0982C215.609 13.8719 212.564 12.7301 209.519 11.6729L210.576 8.58598C213.664 9.64315 216.793 10.8272 219.796 12.0958L218.569 15.0982ZM114.529 9.72773L113.599 6.59849C116.728 5.66817 119.943 4.82243 123.115 4.06127L123.833 7.23279C120.746 7.95167 117.574 8.79741 114.529 9.72773ZM200.299 8.79741C197.212 7.95167 194.04 7.1905 190.91 6.51391L191.587 3.34239C194.801 4.01898 198.015 4.78015 201.187 5.66817L200.299 8.79741ZM133.307 5.37216L132.8 2.15835C136.014 1.60862 139.313 1.18575 142.569 0.847454L142.908 4.10355C139.693 4.39956 136.479 4.82243 133.307 5.37216ZM181.394 4.86472C178.222 4.39956 175.008 4.06127 171.794 3.76526L172.047 0.509157C175.304 0.76288 178.603 1.14346 181.859 1.60862L181.394 4.86472ZM152.508 3.38467L152.381 0.128574C155.638 0.0017134 158.937 -0.0405736 162.235 0.0440004L162.151 3.3001C158.937 3.21553 155.722 3.25781 152.508 3.38467Z" fill="url(#paint0_radial_1_463)"/>
<path d="M158.979 301.339C155.68 301.339 152.381 301.212 149.125 301.001L149.336 297.745C154.454 298.083 159.698 298.167 164.858 297.956L164.984 301.212C162.997 301.297 160.967 301.339 158.979 301.339ZM174.839 300.451L174.458 297.237C177.63 296.899 180.844 296.391 184.016 295.842L184.608 299.055C181.394 299.605 178.095 300.07 174.839 300.451ZM139.313 299.986C136.056 299.521 132.8 298.971 129.585 298.294L130.262 295.123C133.392 295.799 136.606 296.349 139.778 296.772L139.313 299.986ZM194.251 296.899L193.448 293.727C196.535 292.924 199.665 292.036 202.71 291.021L203.725 294.108C200.595 295.165 197.423 296.095 194.251 296.899ZM120.027 295.884C116.897 294.996 113.725 293.981 110.638 292.839L111.738 289.795C114.741 290.894 117.828 291.867 120.915 292.755L120.027 295.884ZM212.945 290.683L211.718 287.68C214.679 286.454 217.639 285.143 220.515 283.705L221.953 286.623C218.992 288.103 215.947 289.456 212.945 290.683ZM101.461 289.16C98.4578 287.849 95.455 286.369 92.5791 284.847L94.1016 281.971C96.9352 283.452 99.8534 284.889 102.772 286.2L101.461 289.16ZM230.623 281.971L228.974 279.181C231.723 277.574 234.472 275.84 237.136 274.022L238.955 276.728C236.248 278.546 233.414 280.322 230.623 281.971ZM83.9936 279.942C81.2023 278.208 78.4532 276.347 75.7888 274.444L77.692 271.823C80.2718 273.683 82.9786 275.502 85.6853 277.193L83.9936 279.942ZM246.906 270.85L244.876 268.313C247.371 266.325 249.866 264.253 252.235 262.097L254.434 264.507C252.023 266.706 249.486 268.82 246.906 270.85ZM68.0069 268.397C65.4693 266.283 63.0164 264.084 60.648 261.843L62.8895 259.475C65.2156 261.674 67.6263 263.83 70.0793 265.902L68.0069 268.397ZM261.497 257.614L259.171 255.373C261.37 253.047 263.569 250.637 265.599 248.184L268.094 250.256C266.022 252.793 263.781 255.246 261.497 257.614ZM53.7542 254.739C51.555 252.328 49.3981 249.791 47.368 247.212L49.9056 245.182C51.8933 247.677 54.008 250.172 56.1649 252.54L53.7542 254.739ZM274.185 242.518L271.562 240.615C273.466 238.035 275.284 235.329 276.976 232.623L279.725 234.356C277.991 237.105 276.13 239.854 274.185 242.518ZM41.4893 239.304C39.6284 236.598 37.8521 233.807 36.2027 230.973L38.994 229.324C40.6011 232.073 42.3352 234.821 44.1537 237.443L41.4893 239.304ZM284.673 225.772L281.797 224.25C283.32 221.416 284.716 218.499 286.027 215.581L288.987 216.892C287.676 219.894 286.196 222.897 284.673 225.772ZM31.5082 222.305C30.0279 219.387 28.6746 216.342 27.4058 213.34L30.4086 212.113C31.6351 215.073 32.9884 218.034 34.4264 220.867L31.5082 222.305ZM292.709 207.758L289.664 206.658C290.763 203.656 291.778 200.569 292.667 197.482L295.796 198.37C294.866 201.542 293.851 204.671 292.709 207.758ZM23.9801 204.121C22.9227 201.034 21.9923 197.82 21.1887 194.649L24.3184 193.845C25.122 196.932 26.0524 200.062 27.0674 203.106L23.9801 204.121ZM298.207 188.813L295.035 188.137C295.712 185.007 296.261 181.836 296.727 178.664L299.941 179.129C299.476 182.343 298.884 185.599 298.207 188.813ZM19.0318 185.05C18.4397 181.836 17.9322 178.537 17.5515 175.281L20.7658 174.901C21.1464 178.072 21.6117 181.286 22.2038 184.415L19.0318 185.05ZM300.956 169.277L297.699 169.065C297.911 165.894 298.038 162.638 298.038 159.424H301.294C301.337 162.68 301.21 166.021 300.956 169.277ZM16.7903 165.428C16.7057 163.272 16.6634 161.115 16.6634 159.001C16.6634 157.859 16.6634 156.717 16.7057 155.576L19.9622 155.66C19.9199 156.76 19.9199 157.901 19.9199 159.001C19.9199 161.073 19.9622 163.23 20.0468 165.302L16.7903 165.428ZM297.784 149.782C297.573 146.568 297.234 143.355 296.811 140.183L300.026 139.76C300.448 143.016 300.787 146.315 300.998 149.571L297.784 149.782ZM20.4697 146.019L17.2132 145.723C17.5092 142.467 17.9322 139.168 18.482 135.954L21.6962 136.462C21.1887 139.633 20.7658 142.847 20.4697 146.019ZM295.162 130.669C294.527 127.539 293.724 124.368 292.878 121.323L296.008 120.435C296.896 123.607 297.699 126.82 298.334 130.034L295.162 130.669ZM23.5994 127.032L20.4275 126.271C21.1887 123.099 22.0769 119.885 23.0496 116.756L26.137 117.729C25.2065 120.773 24.3184 123.903 23.5994 127.032ZM289.96 112.147C288.86 109.144 287.676 106.142 286.407 103.224L289.368 101.913C290.679 104.916 291.905 108.003 293.005 111.047L289.96 112.147ZM29.3512 108.595L26.3062 107.411C27.4904 104.366 28.8014 101.321 30.1971 98.319L33.1576 99.7145C31.7619 102.632 30.4932 105.635 29.3512 108.595ZM282.22 94.5132C280.74 91.6799 279.133 88.889 277.441 86.1403L280.19 84.4489C281.924 87.2398 283.574 90.1153 285.096 93.0331L282.22 94.5132ZM37.5561 91.1725L34.7224 89.5656C36.3296 86.6901 38.0636 83.8568 39.8399 81.1082L42.5466 82.8842C40.8126 85.5906 39.1632 88.3816 37.5561 91.1725ZM272.07 78.1058C270.209 75.5263 268.221 72.9468 266.191 70.4519L268.687 68.3798C270.759 70.917 272.789 73.5388 274.692 76.2029L272.07 78.1058ZM48.1716 75.0612L45.5917 73.0737C47.5795 70.4519 49.6518 67.8724 51.8088 65.4197L54.2617 67.5764C52.1471 69.9867 50.0747 72.4816 48.1716 75.0612ZM259.805 63.2631C257.606 60.9373 255.28 58.6538 252.911 56.4972L255.111 54.0868C257.521 56.2857 259.89 58.6115 262.131 61.0219L259.805 63.2631ZM60.8594 60.5144L58.5756 58.2309C60.9017 55.9051 63.3124 53.6639 65.8077 51.5073L67.9223 53.9599C65.4693 56.0743 63.1009 58.2732 60.8594 60.5144ZM245.595 50.2387C243.099 48.2512 240.477 46.306 237.855 44.4876L239.716 41.8236C242.423 43.6842 245.087 45.6717 247.625 47.7015L245.595 50.2387ZM75.4082 47.9129L73.4627 45.3334C76.0848 43.3459 78.7916 41.443 81.5406 39.6669L83.3169 42.3733C80.6102 44.1071 77.9457 45.9677 75.4082 47.9129ZM229.735 39.2863C226.986 37.6371 224.11 36.0725 221.276 34.6348L222.756 31.717C225.675 33.197 228.593 34.8039 231.427 36.4531L229.735 39.2863ZM91.5217 37.3834L89.9569 34.5502C92.8328 32.9433 95.751 31.4632 98.7538 30.0678L100.149 33.0279C97.2313 34.3388 94.3554 35.8188 91.5217 37.3834ZM212.479 30.6175C209.519 29.3912 206.474 28.2494 203.429 27.1923L204.486 24.1053C207.573 25.1625 210.703 26.3465 213.748 27.6151L212.479 30.6175ZM108.989 29.222L107.804 26.1774C110.85 24.9933 113.979 23.8939 117.109 22.9636L118.082 26.0928C115.037 26.9808 111.949 28.038 108.989 29.222ZM194.209 24.4436C191.121 23.6402 187.949 22.9213 184.82 22.3293L185.412 19.1154C188.626 19.7075 191.883 20.4686 195.055 21.2721L194.209 24.4436ZM127.386 23.5556L126.667 20.3841C129.839 19.6229 133.096 18.9886 136.352 18.4811L136.86 21.6949C133.688 22.2024 130.516 22.7944 127.386 23.5556ZM175.304 20.8492C172.132 20.4686 168.875 20.2149 165.703 20.0458L165.873 16.7897C169.129 16.9588 172.47 17.2125 175.685 17.5931L175.304 20.8492ZM146.418 20.4686L146.122 17.2125C149.378 16.9165 152.677 16.7474 155.976 16.6628L156.061 19.9189C152.846 20.0035 149.59 20.2149 146.418 20.4686Z" fill="url(#paint1_radial_1_463)"/>
<path d="M158.979 284.678C155.68 284.678 152.381 284.551 149.125 284.297L149.378 281.041C152.55 281.295 155.807 281.422 158.979 281.422V284.678ZM167.691 284.382L167.48 281.126C170.652 280.914 173.908 280.576 177.038 280.111L177.503 283.325C174.247 283.79 170.948 284.128 167.691 284.382ZM139.313 283.113C136.056 282.606 132.8 281.971 129.628 281.168L130.389 277.997C133.476 278.758 136.691 279.392 139.82 279.857L139.313 283.113ZM187.188 281.464L186.469 278.293C189.599 277.574 192.729 276.728 195.774 275.755L196.746 278.842C193.617 279.857 190.402 280.745 187.188 281.464ZM120.112 278.504C116.982 277.489 113.852 276.347 110.85 275.079L112.118 272.076C115.079 273.303 118.124 274.444 121.169 275.417L120.112 278.504ZM206.051 275.544L204.824 272.542C207.785 271.357 210.745 270.004 213.579 268.566L215.017 271.484C212.099 272.922 209.054 274.275 206.051 275.544ZM101.841 270.892C98.923 269.412 96.0048 267.763 93.2135 266.029L94.9052 263.281C97.6119 264.972 100.446 266.537 103.279 268.017L101.841 270.892ZM223.687 266.706L221.995 263.915C224.744 262.266 227.451 260.49 230.031 258.629L231.934 261.293C229.27 263.196 226.478 265.014 223.687 266.706ZM85.0086 260.532C82.3442 258.587 79.7643 256.515 77.2691 254.4L79.3837 251.948C81.7944 254.02 84.3743 256.05 86.9541 257.91L85.0086 260.532ZM239.758 255.204L237.686 252.709C240.139 250.637 242.507 248.48 244.791 246.239L247.075 248.565C244.706 250.848 242.253 253.089 239.758 255.204ZM70.037 247.677C67.7109 245.351 65.4693 242.898 63.3547 240.403L65.85 238.289C67.9223 240.742 70.1216 243.11 72.3631 245.351L70.037 247.677ZM253.842 241.376L251.389 239.262C253.503 236.851 255.533 234.314 257.437 231.735L260.059 233.68C258.071 236.302 255.999 238.881 253.842 241.376ZM57.2222 232.665C55.2768 230.001 53.4582 227.252 51.7242 224.461L54.5155 222.77C56.1649 225.476 57.9835 228.182 59.8444 230.762L57.2222 232.665ZM265.599 225.476L262.85 223.742C264.542 221.036 266.149 218.203 267.629 215.369L270.505 216.892C268.983 219.81 267.333 222.727 265.599 225.476ZM46.9028 215.835C45.4225 212.917 44.0269 209.914 42.7581 206.87L45.7609 205.643C46.9874 208.604 48.3407 211.521 49.7787 214.397L46.9028 215.835ZM274.734 207.969L271.732 206.701C273 203.741 274.142 200.738 275.157 197.693L278.245 198.708C277.187 201.838 276.003 204.967 274.734 207.969ZM39.3746 197.609C38.3596 194.48 37.4715 191.266 36.7102 188.094L39.8822 187.333C40.6011 190.462 41.4893 193.549 42.462 196.594L39.3746 197.609ZM280.994 189.236L277.822 188.433C278.583 185.346 279.26 182.174 279.767 179.003L282.982 179.552C282.432 182.808 281.755 186.065 280.994 189.236ZM34.807 178.368C34.2995 175.112 33.9189 171.814 33.6651 168.558L36.9217 168.304C37.1754 171.476 37.5561 174.732 38.0213 177.861L34.807 178.368ZM284.208 169.742L280.951 169.446C281.205 166.274 281.374 163.018 281.374 159.847L284.631 159.889C284.631 163.187 284.504 166.486 284.208 169.742ZM36.541 158.705H33.2845C33.2845 155.406 33.4114 152.108 33.7074 148.852L36.964 149.106C36.7102 152.277 36.541 155.491 36.541 158.705ZM281.121 150.247C280.909 147.034 280.529 143.82 280.063 140.691L283.278 140.225C283.785 143.482 284.123 146.78 284.377 150.036L281.121 150.247ZM38.1059 139.549L34.8916 139.041C35.3991 135.785 36.0758 132.529 36.8371 129.358L40.009 130.119C39.2478 133.206 38.6134 136.377 38.1059 139.549ZM278.245 131.218C277.526 128.089 276.68 125.002 275.707 121.957L278.795 120.985C279.81 124.114 280.655 127.328 281.417 130.499L278.245 131.218ZM42.6312 120.858L39.5438 119.843C40.5588 116.714 41.743 113.585 43.0118 110.582L46.0146 111.851C44.7881 114.769 43.6462 117.813 42.6312 120.858ZM272.408 112.908C271.182 109.948 269.871 106.988 268.433 104.155L271.351 102.675C272.831 105.592 274.185 108.637 275.453 111.682L272.408 112.908ZM50.0747 103.097L47.1988 101.617C48.7214 98.6996 50.3285 95.8241 52.0625 93.0331L54.8115 94.7669C53.1198 97.431 51.555 100.264 50.0747 103.097ZM263.781 95.7395C262.131 92.9908 260.355 90.3268 258.494 87.705L261.116 85.802C263.019 88.4661 264.88 91.2571 266.572 94.048L263.781 95.7395ZM60.225 86.7324L57.6029 84.7872C59.5483 82.1231 61.6207 79.5436 63.7776 77.0486L66.2306 79.163C64.116 81.6156 62.0859 84.1529 60.225 86.7324ZM252.531 80.0933C250.458 77.6407 248.301 75.2726 246.018 72.9891L248.344 70.7056C250.67 73.0314 252.911 75.484 255.026 77.979L252.531 80.0933ZM72.786 72.1434L70.5022 69.8176C72.8283 67.4918 75.2813 65.2506 77.7766 63.1362L79.8912 65.6311C77.4382 67.7032 75.0275 69.9021 72.786 72.1434ZM238.997 66.4346C236.586 64.3203 234.049 62.3328 231.469 60.4298L233.414 57.8081C236.036 59.7533 238.659 61.8253 241.154 63.982L238.997 66.4346ZM87.4616 59.711L85.5584 57.0892C88.2229 55.1863 90.9719 53.3256 93.8056 51.6341L95.4973 54.4251C92.7482 56.032 90.0415 57.8503 87.4616 59.711ZM223.518 55.0171C220.811 53.3256 217.977 51.7187 215.144 50.2387L216.624 47.3632C219.542 48.8855 222.418 50.5347 225.209 52.2685L223.518 55.0171ZM103.871 49.6889L102.391 46.7711C105.309 45.2911 108.354 43.8956 111.357 42.6693L112.584 45.6717C109.665 46.898 106.705 48.2512 103.871 49.6889ZM206.431 46.1368C203.471 44.9105 200.468 43.7688 197.423 42.7539L198.438 39.6669C201.568 40.6818 204.655 41.8658 207.7 43.1345L206.431 46.1368ZM121.634 42.4156L120.619 39.3286C123.749 38.3137 126.963 37.4257 130.135 36.6645L130.896 39.8361C127.809 40.555 124.679 41.443 121.634 42.4156ZM188.161 40.0898C185.074 39.3286 181.902 38.6943 178.73 38.1869L179.237 34.9731C182.494 35.4805 185.75 36.1571 188.922 36.9606L188.161 40.0898ZM140.37 37.9754L139.862 34.7616C143.119 34.2542 146.418 33.8736 149.674 33.6622L149.928 36.9183C146.756 37.1297 143.542 37.5103 140.37 37.9754ZM169.171 37.0028C165.999 36.7491 162.743 36.58 159.571 36.58V33.3239C162.87 33.3239 166.169 33.493 169.425 33.7467L169.171 37.0028Z" fill="url(#paint2_radial_1_463)"/>
<path d="M158.979 268.017C155.68 268.017 152.339 267.848 149.082 267.552L149.378 264.296C152.55 264.591 155.765 264.718 158.979 264.718V268.017ZM160.417 267.974L160.375 264.718C163.589 264.676 166.803 264.507 169.975 264.169L170.313 267.425C167.057 267.763 163.716 267.932 160.417 267.974ZM139.27 266.198C136.056 265.606 132.8 264.845 129.628 263.957L130.516 260.828C133.603 261.674 136.733 262.435 139.862 262.985L139.27 266.198ZM180.125 265.945L179.491 262.773C182.621 262.139 185.75 261.378 188.838 260.49L189.768 263.619C186.554 264.507 183.34 265.31 180.125 265.945ZM120.239 260.87C117.151 259.686 114.106 258.375 111.146 256.938L112.584 254.02C115.46 255.415 118.42 256.726 121.381 257.868L120.239 260.87ZM199.072 260.363L197.888 257.36C200.849 256.176 203.809 254.865 206.643 253.428L208.123 256.346C205.163 257.783 202.16 259.136 199.072 260.363ZM102.476 252.159C99.6843 250.468 96.8929 248.607 94.2708 246.62L96.2162 243.998C98.7961 245.901 101.461 247.719 104.21 249.368L102.476 252.159ZM216.751 251.398L215.017 248.649C217.724 246.958 220.388 245.097 222.926 243.194L224.913 245.774C222.249 247.761 219.5 249.664 216.751 251.398ZM86.5735 240.403C84.1205 238.204 81.7521 235.879 79.4683 233.511L81.8367 231.269C84.0359 233.595 86.3197 235.836 88.7304 237.993L86.5735 240.403ZM232.484 239.431L230.285 237.02C232.653 234.864 234.937 232.58 237.094 230.212L239.504 232.411C237.263 234.864 234.895 237.232 232.484 239.431ZM73.0398 225.983C71.0097 223.404 69.0642 220.655 67.2879 217.907L70.037 216.131C71.771 218.795 73.6319 221.459 75.6196 223.954L73.0398 225.983ZM245.806 224.842L243.226 222.854C245.172 220.317 246.99 217.653 248.682 214.947L251.431 216.68C249.697 219.471 247.794 222.22 245.806 224.842ZM62.2974 209.365C60.7748 206.447 59.3792 203.445 58.1104 200.4L61.1132 199.174C62.3397 202.134 63.693 205.051 65.1733 207.885L62.2974 209.365ZM256.337 208.054L253.419 206.574C254.857 203.741 256.168 200.78 257.352 197.82L260.397 199.004C259.171 202.091 257.817 205.136 256.337 208.054ZM54.7692 191.054C53.7965 187.925 52.9507 184.669 52.274 181.455L55.4459 180.779C56.1226 183.908 56.9262 187.037 57.8566 190.082L54.7692 191.054ZM263.611 189.659L260.482 188.729C261.37 185.684 262.131 182.512 262.766 179.383L265.937 180.018C265.303 183.274 264.542 186.53 263.611 189.659ZM50.7091 171.729C50.3285 168.473 50.0747 165.132 49.9902 161.876L53.2467 161.792C53.3313 165.006 53.5428 168.219 53.9234 171.391L50.7091 171.729ZM267.418 170.249L264.161 169.911C264.5 166.739 264.669 163.526 264.711 160.312L267.968 160.354C267.968 163.652 267.756 166.993 267.418 170.249ZM53.4159 152.15L50.1593 151.939C50.3708 148.641 50.7514 145.342 51.2589 142.086L54.4732 142.594C54.008 145.765 53.6273 148.979 53.4159 152.15ZM264.415 150.755C264.161 147.583 263.781 144.37 263.231 141.24L266.445 140.691C266.995 143.947 267.418 147.245 267.672 150.501L264.415 150.755ZM56.4187 133.206L53.2467 132.402C54.0503 129.231 55.023 126.017 56.0803 122.93L59.1677 124.03C58.1104 126.99 57.1799 130.119 56.4187 133.206ZM261.201 131.81C260.397 128.723 259.424 125.636 258.325 122.634L261.37 121.492C262.512 124.579 263.527 127.751 264.373 130.922L261.201 131.81ZM62.7626 115.107L59.8021 113.754C61.1555 110.751 62.678 107.791 64.3274 104.958L67.1611 106.565C65.5539 109.314 64.0737 112.189 62.7626 115.107ZM254.603 113.796C253.25 110.921 251.727 108.045 250.078 105.296L252.869 103.647C254.561 106.48 256.126 109.44 257.521 112.401L254.603 113.796ZM72.3208 98.4459L69.6563 96.5852C71.5595 93.8789 73.5896 91.2571 75.7042 88.7621L78.1995 90.8765C76.1271 93.2868 74.1394 95.8241 72.3208 98.4459ZM244.833 97.3041C242.972 94.7246 240.942 92.1874 238.87 89.777L241.323 87.6627C243.48 90.1576 245.552 92.7371 247.455 95.4435L244.833 97.3041ZM84.7126 83.7723L82.4288 81.4465C84.7549 79.1207 87.2502 76.9218 89.7877 74.8074L91.8601 77.3024C89.3648 79.3744 86.9964 81.5311 84.7126 83.7723ZM232.23 82.7997C229.946 80.6008 227.493 78.4441 224.998 76.4566L227.028 73.9194C229.608 75.9915 232.103 78.1904 234.472 80.4739L232.23 82.7997ZM99.5151 71.5936L97.6965 68.8872C100.403 67.0266 103.237 65.2929 106.113 63.686L107.678 66.5192C104.929 68.0838 102.18 69.7753 99.5151 71.5936ZM217.258 70.7902C214.594 69.0141 211.803 67.3649 209.011 65.8426L210.576 62.9671C213.452 64.5317 216.328 66.2232 219.077 68.0415L217.258 70.7902ZM116.305 62.2482L114.994 59.2881C117.997 57.9772 121.084 56.7509 124.214 55.6937L125.271 58.7807C122.226 59.7955 119.224 60.9373 116.305 62.2482ZM200.384 61.6985C197.465 60.4298 194.42 59.3304 191.375 58.3155L192.39 55.2285C195.52 56.2434 198.65 57.3852 201.652 58.6961L200.384 61.6985ZM134.491 56.1166L133.73 52.945C136.944 52.1839 140.201 51.5496 143.457 51.0844L143.923 54.2982C140.751 54.7634 137.579 55.3554 134.491 56.1166ZM182.113 55.7783C178.983 55.1017 175.811 54.5097 172.639 54.1291L173.062 50.9153C176.319 51.3381 179.618 51.9302 182.832 52.649L182.113 55.7783ZM153.481 53.3679L153.312 50.1118C156.568 49.9427 159.952 49.9004 163.208 50.0272L163.081 53.2833C159.909 53.1988 156.653 53.2411 153.481 53.3679Z" fill="url(#paint3_radial_1_463)"/>
<path d="M158.979 251.313C155.68 251.313 152.339 251.144 149.082 250.806L149.421 247.592C153.861 248.057 158.471 248.226 162.954 248.015L163.081 251.271C161.728 251.313 160.332 251.313 158.979 251.313ZM172.978 250.256L172.47 247.042C175.6 246.577 178.772 245.901 181.859 245.097L182.705 248.226C179.491 249.114 176.234 249.791 172.978 250.256ZM139.27 249.199C136.056 248.48 132.842 247.592 129.712 246.577L130.727 243.49C133.73 244.505 136.86 245.351 139.947 246.028L139.27 249.199ZM192.136 245.182L190.952 242.137C193.913 240.995 196.873 239.684 199.707 238.204L201.187 241.08C198.269 242.645 195.224 243.998 192.136 245.182ZM120.45 242.898C117.447 241.503 114.487 239.98 111.653 238.247L113.345 235.456C116.094 237.105 118.928 238.585 121.803 239.938L120.45 242.898ZM209.773 236.09L207.996 233.384C210.661 231.65 213.241 229.705 215.694 227.675L217.766 230.17C215.186 232.284 212.522 234.272 209.773 236.09ZM103.448 232.749C100.826 230.762 98.2463 228.605 95.8356 226.364L98.0771 223.996C100.403 226.195 102.856 228.267 105.394 230.17L103.448 232.749ZM225.04 223.446L222.714 221.163C224.956 218.879 227.07 216.469 229.016 213.974L231.553 216.004C229.566 218.583 227.324 221.12 225.04 223.446ZM88.9842 219.175C86.8272 216.68 84.7972 214.016 82.9363 211.31L85.6007 209.449C87.4193 212.071 89.3648 214.608 91.4372 217.019L88.9842 219.175ZM237.305 207.885L234.556 206.151C236.248 203.445 237.813 200.654 239.208 197.778L242.127 199.216C240.689 202.176 239.039 205.094 237.305 207.885ZM77.7343 202.852C76.1694 199.935 74.7315 196.932 73.4627 193.888L76.4655 192.661C77.692 195.621 79.0453 198.497 80.5679 201.33L77.7343 202.852ZM245.975 190.04L242.93 188.94C243.988 185.938 244.918 182.851 245.679 179.764L248.851 180.525C248.048 183.739 247.075 186.953 245.975 190.04ZM70.2061 184.5C69.2757 181.328 68.5567 178.072 67.9646 174.816L71.1789 174.266C71.7287 177.396 72.4477 180.525 73.3358 183.612L70.2061 184.5ZM250.585 170.757L247.371 170.334C247.794 167.205 248.005 163.991 248.09 160.777L251.346 160.861C251.262 164.16 251.008 167.501 250.585 170.757ZM66.8227 165.006C66.6958 163.018 66.6113 161.031 66.6113 159.001C66.6113 157.69 66.6535 156.379 66.6958 155.068L69.9524 155.195C69.9101 156.464 69.8678 157.732 69.8678 159.001C69.8678 160.946 69.9101 162.891 70.037 164.794L66.8227 165.006ZM247.752 151.22C247.498 148.049 247.033 144.877 246.398 141.748L249.57 141.113C250.205 144.327 250.67 147.668 250.966 150.924L247.752 151.22ZM70.8828 145.68L67.6686 145.215C68.1761 141.959 68.8528 138.661 69.6563 135.489L72.786 136.335C71.9824 139.38 71.3481 142.509 70.8828 145.68ZM244.03 132.487C243.099 129.442 241.957 126.44 240.689 123.522L243.691 122.211C245.003 125.256 246.187 128.385 247.159 131.514L244.03 132.487ZM75.7465 127.159L72.7014 125.975C73.8856 122.888 75.239 119.843 76.7615 116.925L79.6375 118.405C78.1995 121.281 76.8884 124.199 75.7465 127.159ZM236.417 114.938C234.852 112.189 233.076 109.483 231.215 106.903L233.837 105C235.783 107.664 237.601 110.498 239.208 113.331L236.417 114.938ZM84.5011 110.159L81.7944 108.383C83.613 105.635 85.6007 102.928 87.6731 100.391L90.1684 102.463C88.1383 104.916 86.2351 107.495 84.5011 110.159ZM225.209 99.4608C223.095 97.0927 220.811 94.8092 218.443 92.6948L220.6 90.2845C223.053 92.4834 225.421 94.8515 227.62 97.3041L225.209 99.4608ZM96.6392 95.4012L94.3554 93.0754C96.7238 90.7496 99.219 88.5507 101.799 86.5209L103.829 89.0582C101.334 91.0456 98.923 93.16 96.6392 95.4012ZM210.957 86.6901C208.377 84.8295 205.67 83.0957 202.879 81.5311L204.486 78.6978C207.362 80.347 210.153 82.1231 212.86 84.0683L210.957 86.6901ZM111.653 83.5186L109.919 80.7699C112.71 78.9938 115.629 77.3869 118.589 75.9492L120.027 78.867C117.194 80.2625 114.36 81.8271 111.653 83.5186ZM194.336 77.2178C191.417 75.9492 188.372 74.8497 185.37 73.8771L186.342 70.7902C189.472 71.7628 192.644 72.9468 195.647 74.2577L194.336 77.2178ZM128.866 75.1457L127.767 72.1011C130.854 71.0016 134.068 70.029 137.283 69.2678L138.044 72.4394C134.914 73.1582 131.869 74.0886 128.866 75.1457ZM176.065 71.5513C172.935 70.9593 169.764 70.4942 166.592 70.2404L166.845 66.9843C170.144 67.2803 173.443 67.7032 176.657 68.3375L176.065 71.5513ZM147.433 70.6633L147.01 67.4495C150.267 67.0266 153.608 66.7729 156.906 66.6883L156.991 69.9444C153.819 69.9867 150.605 70.2404 147.433 70.6633Z" fill="url(#paint4_radial_1_463)"/>
<path d="M158.979 234.652C155.638 234.652 152.297 234.441 149.04 234.018L149.463 230.804C152.593 231.227 155.807 231.439 158.979 231.439V234.652ZM165.83 234.356L165.534 231.1C168.706 230.804 171.878 230.339 174.966 229.62L175.685 232.792C172.428 233.553 169.129 234.06 165.83 234.356ZM139.27 232.073C136.056 231.227 132.884 230.128 129.839 228.859L131.108 225.857C134.026 227.083 137.071 228.14 140.116 228.944L139.27 232.073ZM185.2 230.001L184.059 226.956C187.019 225.857 189.937 224.546 192.771 223.066L194.293 225.941C191.375 227.464 188.33 228.817 185.2 230.001ZM120.915 224.377C118.039 222.685 115.29 220.824 112.668 218.795L114.656 216.215C117.151 218.16 119.816 219.979 122.565 221.543L120.915 224.377ZM202.794 220.698L200.891 218.034C203.471 216.215 205.966 214.185 208.292 212.029L210.492 214.397C208.081 216.638 205.459 218.752 202.794 220.698ZM105.182 212.198C102.856 209.83 100.657 207.293 98.6692 204.671L101.249 202.683C103.152 205.221 105.267 207.631 107.508 209.872L105.182 212.198ZM217.343 207.123L214.848 205.051C216.878 202.599 218.739 200.019 220.43 197.313L223.179 199.047C221.403 201.88 219.458 204.586 217.343 207.123ZM93.1712 196.383C91.5217 193.507 90.0838 190.505 88.815 187.418L91.8178 186.191C93.002 189.109 94.3977 192.027 95.9625 194.776L93.1712 196.383ZM227.874 190.293L224.913 188.94C226.224 186.065 227.366 183.062 228.297 180.018L231.427 180.948C230.454 184.119 229.27 187.249 227.874 190.293ZM85.6853 177.945C84.8395 174.732 84.2474 171.433 83.8244 168.135L87.0387 167.754C87.4193 170.926 88.0114 174.055 88.815 177.142L85.6853 177.945ZM233.668 171.264L230.454 170.757C230.961 167.627 231.257 164.456 231.384 161.284L234.641 161.369C234.514 164.667 234.218 168.008 233.668 171.264ZM86.5312 158.24L83.2746 158.197C83.3169 154.857 83.5707 151.516 84.0359 148.26L87.2502 148.725C86.8272 151.854 86.5735 155.068 86.5312 158.24ZM231.046 151.727C230.708 148.556 230.2 145.384 229.481 142.34L232.653 141.579C233.414 144.792 233.964 148.091 234.302 151.389L231.046 151.727ZM89.2379 139.422L86.1083 138.534C86.9964 135.362 88.1383 132.191 89.4494 129.146L92.4522 130.415C91.1834 133.333 90.0838 136.377 89.2379 139.422ZM226.647 133.206C225.506 130.246 224.194 127.328 222.672 124.537L225.548 122.972C227.113 125.89 228.551 128.935 229.692 132.022L226.647 133.206ZM96.7661 121.915L93.9747 120.266C95.6664 117.433 97.5696 114.684 99.642 112.062L102.18 114.092C100.234 116.587 98.4155 119.209 96.7661 121.915ZM217.597 116.502C215.736 113.923 213.664 111.47 211.507 109.187L213.875 106.946C216.159 109.356 218.316 111.935 220.261 114.6L217.597 116.502ZM108.608 107.03L106.324 104.704C108.693 102.379 111.272 100.222 113.895 98.2344L115.84 100.856C113.303 102.717 110.892 104.789 108.608 107.03ZM204.486 102.675C202.033 100.687 199.411 98.8265 196.704 97.1773L198.396 94.3863C201.229 96.1201 203.978 98.0653 206.516 100.137L204.486 102.675ZM123.876 95.6549L122.311 92.8217C125.187 91.2148 128.232 89.777 131.319 88.5507L132.504 91.5954C129.543 92.7371 126.625 94.1326 123.876 95.6549ZM188.246 92.7371C185.327 91.4685 182.325 90.3268 179.279 89.4387L180.21 86.3095C183.382 87.2398 186.554 88.3816 189.557 89.7347L188.246 92.7371ZM141.554 88.6776L140.793 85.506C144.007 84.7026 147.306 84.1106 150.605 83.7723L150.943 86.9861C147.814 87.3667 144.642 87.9164 141.554 88.6776ZM169.975 87.409C166.845 86.9438 163.673 86.6478 160.459 86.6055L160.544 83.3494C163.885 83.434 167.184 83.6877 170.483 84.1952L169.975 87.409Z" fill="url(#paint5_radial_1_463)"/>
<path d="M158.979 217.991C155.638 217.991 152.254 217.695 148.998 217.145L149.548 213.932C155.595 214.947 161.939 214.989 167.987 214.016L168.495 217.23C165.365 217.738 162.193 217.991 158.979 217.991ZM178.222 214.777L177.165 211.69C180.125 210.676 183.043 209.365 185.793 207.842L187.357 210.676C184.481 212.325 181.394 213.678 178.222 214.777ZM139.313 214.651C136.183 213.551 133.096 212.156 130.177 210.506L131.785 207.673C134.534 209.238 137.452 210.549 140.412 211.606L139.313 214.651ZM195.731 205.136L193.701 202.599C196.154 200.654 198.48 198.455 200.595 196.087L203.006 198.243C200.764 200.738 198.311 203.064 195.731 205.136ZM121.888 204.84C119.308 202.726 116.855 200.4 114.656 197.905L117.109 195.748C119.181 198.116 121.507 200.315 123.96 202.303L121.888 204.84ZM209.011 190.251L206.262 188.517C207.954 185.853 209.392 183.02 210.576 180.102L213.579 181.328C212.352 184.415 210.788 187.418 209.011 190.251ZM108.693 189.87C106.959 187.037 105.436 184.035 104.167 180.906L107.17 179.679C108.354 182.597 109.792 185.43 111.442 188.137L108.693 189.87ZM216.624 171.772L213.452 171.053C214.129 167.966 214.552 164.836 214.721 161.665L217.977 161.834C217.766 165.175 217.343 168.515 216.624 171.772ZM101.249 171.349C100.572 168.093 100.149 164.752 99.9803 161.411L103.237 161.284C103.364 164.456 103.744 167.585 104.421 170.672L101.249 171.349ZM214.34 152.235C213.96 149.106 213.325 145.976 212.395 142.974L215.524 142.044C216.497 145.215 217.174 148.556 217.597 151.854L214.34 152.235ZM103.66 151.812L100.446 151.389C100.868 148.091 101.587 144.792 102.56 141.579L105.648 142.551C104.759 145.554 104.083 148.683 103.66 151.812ZM208.927 134.178C207.531 131.345 205.839 128.639 203.978 126.102L206.601 124.156C208.588 126.863 210.322 129.738 211.803 132.698L208.927 134.178ZM109.242 133.756L106.324 132.275C107.847 129.315 109.623 126.44 111.611 123.776L114.233 125.721C112.372 128.258 110.68 130.965 109.242 133.756ZM197.761 118.955C195.478 116.756 193.025 114.726 190.445 112.95L192.263 110.286C195.012 112.189 197.635 114.303 200.045 116.629L197.761 118.955ZM120.535 118.659L118.293 116.291C120.704 114.007 123.326 111.893 126.117 110.033L127.936 112.739C125.314 114.473 122.818 116.46 120.535 118.659ZM182.155 108.299C179.279 106.988 176.277 105.888 173.232 105.085L174.077 101.956C177.292 102.801 180.464 103.943 183.509 105.339L182.155 108.299ZM136.183 108.087L134.83 105.127C137.875 103.774 141.047 102.632 144.303 101.829L145.107 105C142.062 105.762 139.059 106.819 136.183 108.087ZM163.927 103.436C160.797 103.14 157.583 103.14 154.454 103.393L154.2 100.137C157.499 99.8836 160.924 99.8836 164.223 100.18L163.927 103.436Z" fill="url(#paint6_radial_1_463)"/>
<path d="M158.979 201.33C155.595 201.33 152.212 200.907 148.913 200.146L149.674 196.975C153.354 197.863 157.245 198.243 161.051 198.032L161.22 201.288C160.501 201.33 159.74 201.33 158.979 201.33ZM171.244 199.554L170.313 196.425C173.316 195.537 176.192 194.268 178.856 192.661L180.506 195.452C177.588 197.186 174.458 198.581 171.244 199.554ZM139.44 196.552C136.437 194.987 133.645 193.084 131.108 190.843L133.265 188.39C135.633 190.462 138.213 192.238 140.962 193.676L139.44 196.552ZM188.542 189.321L186.258 186.995C188.499 184.796 190.487 182.386 192.136 179.721L194.885 181.455C193.109 184.288 190.952 186.953 188.542 189.321ZM124.341 183.316C122.396 180.567 120.788 177.565 119.562 174.393L122.607 173.209C123.749 176.127 125.229 178.876 127.048 181.413L124.341 183.316ZM199.199 172.279L196.112 171.264C197.085 168.304 197.719 165.217 197.973 162.088L201.229 162.342C200.933 165.724 200.257 169.065 199.199 172.279ZM116.982 164.625C116.728 162.764 116.601 160.861 116.601 159.001C116.601 157.521 116.686 155.998 116.855 154.518L120.069 154.857C119.943 156.21 119.858 157.605 119.858 159.001C119.858 160.735 119.985 162.468 120.196 164.202L116.982 164.625ZM197.592 152.785C197.085 149.698 196.239 146.695 195.012 143.82L198.015 142.551C199.326 145.68 200.257 148.937 200.806 152.277L197.592 152.785ZM122.184 145.723L119.139 144.623C120.281 141.452 121.803 138.407 123.707 135.574L126.413 137.392C124.679 140.014 123.241 142.805 122.184 145.723ZM190.36 135.701C188.499 133.206 186.342 130.922 183.932 128.935L186.004 126.44C188.626 128.597 190.952 131.049 192.982 133.798L190.36 135.701ZM132.461 130.288L130.262 127.92C132.757 125.636 135.506 123.607 138.467 122L140.032 124.833C137.325 126.313 134.787 128.174 132.461 130.288ZM176.065 123.818C173.274 122.465 170.271 121.408 167.226 120.773L167.903 117.602C171.201 118.321 174.416 119.42 177.461 120.9L176.065 123.818ZM148.702 121.281L147.856 118.152C151.112 117.264 154.496 116.756 157.879 116.672L157.964 119.928C154.792 120.012 151.704 120.435 148.702 121.281Z" fill="url(#paint7_radial_1_463)"/>
<path d="M158.979 184.669C155.469 184.669 152.043 183.95 148.829 182.597L150.097 179.595C152.889 180.821 155.891 181.413 158.937 181.413V184.669H158.979ZM164.096 184.162L163.462 180.99C166.465 180.398 169.256 179.172 171.751 177.438L173.612 180.102C170.694 182.09 167.522 183.485 164.096 184.162ZM140.37 176.677C137.959 174.14 136.098 171.18 134.872 167.881L137.917 166.739C138.974 169.615 140.581 172.194 142.696 174.393L140.37 176.677ZM180.76 172.617L178.011 170.884C179.66 168.304 180.717 165.428 181.183 162.426L184.397 162.934C183.847 166.401 182.621 169.657 180.76 172.617ZM136.564 157.859L133.307 157.69C133.476 154.18 134.364 150.797 135.929 147.668L138.847 149.106C137.494 151.854 136.733 154.772 136.564 157.859ZM180.717 153.419C179.956 150.459 178.603 147.753 176.742 145.3L179.322 143.312C181.479 146.103 183.001 149.233 183.889 152.616L180.717 153.419ZM144.388 141.959L142.273 139.507C144.938 137.223 147.983 135.532 151.324 134.474L152.297 137.561C149.378 138.492 146.714 139.972 144.388 141.959ZM169.89 139.38C167.226 137.9 164.308 136.969 161.263 136.673L161.601 133.417C165.069 133.756 168.41 134.813 171.455 136.546L169.89 139.38Z" fill="url(#paint8_radial_1_463)"/>
<path d="M158.979 168.008C154.876 168.008 151.282 165.217 150.224 161.242L153.354 160.439C154.031 162.976 156.314 164.752 158.937 164.752C160.924 164.752 162.743 163.737 163.8 162.046L166.549 163.779C164.942 166.443 162.066 168.008 158.979 168.008ZM163.166 155.026C162.066 153.842 160.586 153.208 158.979 153.208C158.006 153.208 157.033 153.461 156.188 153.926L154.623 151.093C155.934 150.374 157.456 149.994 158.979 149.994C161.474 149.994 163.843 151.051 165.534 152.827L163.166 155.026Z" fill="url(#paint9_radial_1_463)"/>
</g>
<defs>
<radialGradient id="paint0_radial_1_463" cx="0" cy="0" r="1" gradientUnits="userSpaceOnUse" gradientTransform="translate(159 159) rotate(90) scale(159)">
<stop stop-color="#1925E8"/>
<stop offset="1" stop-color="#515BFF" stop-opacity="0.02"/>
</radialGradient>
<radialGradient id="paint1_radial_1_463" cx="0" cy="0" r="1" gradientUnits="userSpaceOnUse" gradientTransform="translate(159 159) rotate(90) scale(159)">
<stop stop-color="#1925E8"/>
<stop offset="1" stop-color="#515BFF" stop-opacity="0.02"/>
</radialGradient>
<radialGradient id="paint2_radial_1_463" cx="0" cy="0" r="1" gradientUnits="userSpaceOnUse" gradientTransform="translate(159 159) rotate(90) scale(159)">
<stop stop-color="#1925E8"/>
<stop offset="1" stop-color="#515BFF" stop-opacity="0.02"/>
</radialGradient>
<radialGradient id="paint3_radial_1_463" cx="0" cy="0" r="1" gradientUnits="userSpaceOnUse" gradientTransform="translate(159 159) rotate(90) scale(159)">
<stop stop-color="#1925E8"/>
<stop offset="1" stop-color="#515BFF" stop-opacity="0.02"/>
</radialGradient>
<radialGradient id="paint4_radial_1_463" cx="0" cy="0" r="1" gradientUnits="userSpaceOnUse" gradientTransform="translate(159 159) rotate(90) scale(159)">
<stop stop-color="#1925E8"/>
<stop offset="1" stop-color="#515BFF" stop-opacity="0.02"/>
</radialGradient>
<radialGradient id="paint5_radial_1_463" cx="0" cy="0" r="1" gradientUnits="userSpaceOnUse" gradientTransform="translate(159 159) rotate(90) scale(159)">
<stop stop-color="#1925E8"/>
<stop offset="1" stop-color="#515BFF" stop-opacity="0.02"/>
</radialGradient>
<radialGradient id="paint6_radial_1_463" cx="0" cy="0" r="1" gradientUnits="userSpaceOnUse" gradientTransform="translate(159 159) rotate(90) scale(159)">
<stop stop-color="#1925E8"/>
<stop offset="1" stop-color="#515BFF" stop-opacity="0.02"/>
</radialGradient>
<radialGradient id="paint7_radial_1_463" cx="0" cy="0" r="1" gradientUnits="userSpaceOnUse" gradientTransform="translate(159 159) rotate(90) scale(159)">
<stop stop-color="#1925E8"/>
<stop offset="1" stop-color="#515BFF" stop-opacity="0.02"/>
</radialGradient>
<radialGradient id="paint8_radial_1_463" cx="0" cy="0" r="1" gradientUnits="userSpaceOnUse" gradientTransform="translate(159 159) rotate(90) scale(159)">
<stop stop-color="#1925E8"/>
<stop offset="1" stop-color="#515BFF" stop-opacity="0.02"/>
</radialGradient>
<radialGradient id="paint9_radial_1_463" cx="0" cy="0" r="1" gradientUnits="userSpaceOnUse" gradientTransform="translate(159 159) rotate(90) scale(159)">
<stop stop-color="#1925E8"/>
<stop offset="1" stop-color="#515BFF" stop-opacity="0.02"/>
</radialGradient>
</defs>
</svg>
